<svg width="164" height="50" viewBox="0 0 164 50" fill="none" xmlns="http://www.w3.org/2000/svg">
<rect width="163.289" height="50" rx="25" fill="white"/>
<path fill-rule="evenodd" clip-rule="evenodd" d="M80.3832 18H79.464V10.76H80.3832V18ZM53.6801 18H56.0854C57.0175 18 57.803 17.6883 58.4418 17.065C59.0806 16.4417 59.4001 15.5767 59.4001 14.47C59.4001 13.3567 59.0839 12.485 58.4516 11.855C57.8193 11.225 57.0371 10.91 56.1049 10.91H53.6801V18ZM56.0561 17.13H54.6383V11.78H56.0756C56.7535 11.78 57.3125 12.0133 57.7525 12.48C58.1925 12.9467 58.4125 13.61 58.4125 14.47C58.4125 15.3233 58.1892 15.98 57.7427 16.44C57.2962 16.9 56.734 17.13 56.0561 17.13ZM61.5903 16.86C61.8771 17.16 62.2258 17.31 62.6365 17.31C63.0472 17.31 63.3943 17.1583 63.6778 16.855C63.9614 16.5517 64.1032 16.13 64.1032 15.59C64.1032 15.0567 63.9614 14.6383 63.6778 14.335C63.3943 14.0317 63.0472 13.88 62.6365 13.88C62.2258 13.88 61.8787 14.0317 61.5952 14.335C61.3116 14.6383 61.1698 15.0567 61.1698 15.59C61.1698 16.13 61.31 16.5533 61.5903 16.86ZM62.6365 13.04C61.939 13.04 61.3621 13.2833 60.9058 13.77C60.456 14.25 60.2312 14.8567 60.2312 15.59C60.2312 16.33 60.456 16.9417 60.9058 17.425C61.3556 17.9083 61.9325 18.15 62.6365 18.15C63.3405 18.15 63.9174 17.9083 64.3672 17.425C64.8169 16.9417 65.0418 16.33 65.0418 15.59C65.0418 14.8567 64.8153 14.2483 64.3623 13.765C63.9092 13.2817 63.334 13.04 62.6365 13.04ZM68.8649 13.19H69.8134L71.0356 16.81L72.0721 13.19H73.0401L71.5147 18H70.5663L69.3147 14.34L68.0925 18H67.1245L65.5796 13.19H66.5867L67.6427 16.81L68.8649 13.19ZM74.8881 18V15.22C74.8881 14.84 74.9842 14.525 75.1765 14.275C75.3688 14.025 75.6377 13.9 75.9832 13.9C76.7132 13.9 77.0783 14.3033 77.0783 15.11V18H77.9974V14.95C77.9974 14.39 77.8524 13.9333 77.5623 13.58C77.2722 13.2267 76.8566 13.05 76.3156 13.05C75.6638 13.05 75.1814 13.3267 74.8685 13.88V13.19H73.9689V18H74.8881ZM83.9618 17.31C83.5512 17.31 83.2024 17.16 82.9156 16.86C82.6353 16.5533 82.4952 16.13 82.4952 15.59C82.4952 15.0567 82.6369 14.6383 82.9205 14.335C83.2041 14.0317 83.5512 13.88 83.9618 13.88C84.3725 13.88 84.7196 14.0317 85.0032 14.335C85.2867 14.6383 85.4285 15.0567 85.4285 15.59C85.4285 16.13 85.2867 16.5517 85.0032 16.855C84.7196 17.1583 84.3725 17.31 83.9618 17.31ZM82.2312 13.77C82.6875 13.2833 83.2643 13.04 83.9618 13.04C84.6593 13.04 85.2346 13.2817 85.6876 13.765C86.1406 14.2483 86.3672 14.8567 86.3672 15.59C86.3672 16.33 86.1423 16.9417 85.6925 17.425C85.2427 17.9083 84.6658 18.15 83.9618 18.15C83.2578 18.15 82.6809 17.9083 82.2312 17.425C81.7814 16.9417 81.5565 16.33 81.5565 15.59C81.5565 14.8567 81.7814 14.25 82.2312 13.77ZM87.6383 15.715C87.3775 15.965 87.2472 16.2967 87.2472 16.71C87.2472 17.1033 87.3938 17.4417 87.6872 17.725C87.9805 18.0083 88.3586 18.15 88.8214 18.15C89.1995 18.15 89.514 18.07 89.7649 17.91C90.0159 17.75 90.2066 17.5633 90.3369 17.35C90.3369 17.5833 90.3532 17.8 90.3858 18H91.2854C91.2463 17.76 91.2267 17.4967 91.2267 17.21V14.8C91.2267 14.2867 91.067 13.865 90.7476 13.535C90.4282 13.205 89.9361 13.04 89.2712 13.04C88.7627 13.04 88.326 13.185 87.9609 13.475C87.5959 13.765 87.3906 14.14 87.3449 14.6L88.2249 14.81C88.2575 14.5167 88.3651 14.2817 88.5476 14.105C88.7301 13.9283 88.9778 13.84 89.2907 13.84C89.6297 13.84 89.8839 13.92 90.0534 14.08C90.2229 14.24 90.3076 14.4467 90.3076 14.7C90.3076 14.9067 90.187 15.0267 89.9458 15.06L88.6747 15.25C88.2445 15.31 87.899 15.465 87.6383 15.715ZM88.9485 17.36C89.3592 17.36 89.6883 17.2467 89.9361 17.02C90.1838 16.7933 90.3076 16.4333 90.3076 15.94V15.72L88.8703 15.94C88.6617 15.9733 88.4955 16.05 88.3716 16.17C88.2478 16.29 88.1858 16.4533 88.1858 16.66C88.1858 16.8467 88.2559 17.01 88.396 17.15C88.5362 17.29 88.7203 17.36 88.9485 17.36ZM93.5685 16.82C93.324 16.5 93.2018 16.0867 93.2018 15.58C93.2018 15.08 93.3289 14.6733 93.5832 14.36C93.8374 14.0467 94.1731 13.89 94.5903 13.89C95.0075 13.89 95.3366 14.0433 95.5778 14.35C95.819 14.6567 95.9396 15.06 95.9396 15.56C95.9396 16.0667 95.8158 16.4833 95.5681 16.81C95.3203 17.1367 94.9912 17.3 94.5805 17.3C94.1503 17.3 93.8129 17.14 93.5685 16.82ZM95.9524 17.5294L95.9494 17.27C95.8255 17.5167 95.6381 17.7217 95.3872 17.885C95.1362 18.0483 94.838 18.13 94.4925 18.13C93.8211 18.13 93.2817 17.8883 92.8743 17.405C92.4669 16.9217 92.2632 16.3133 92.2632 15.58C92.2632 14.88 92.4718 14.285 92.8889 13.795C93.3061 13.305 93.8406 13.06 94.4925 13.06C94.8771 13.06 95.19 13.1383 95.4312 13.295C95.6723 13.4517 95.8386 13.6433 95.9298 13.87V10.76H96.8392V17.11C96.8392 17.4367 96.8555 17.7333 96.8881 18H95.9983C95.9738 17.86 95.9585 17.7031 95.9524 17.5294ZM102.862 17.31C102.452 17.31 102.103 17.16 101.816 16.86C101.536 16.5533 101.396 16.13 101.396 15.59C101.396 15.0567 101.537 14.6383 101.821 14.335C102.104 14.0317 102.452 13.88 102.862 13.88C103.273 13.88 103.62 14.0317 103.904 14.335C104.187 14.6383 104.329 15.0567 104.329 15.59C104.329 16.13 104.187 16.5517 103.904 16.855C103.62 17.1583 103.273 17.31 102.862 17.31ZM101.132 13.77C101.588 13.2833 102.165 13.04 102.862 13.04C103.56 13.04 104.135 13.2817 104.588 13.765C105.041 14.2483 105.268 14.8567 105.268 15.59C105.268 16.33 105.043 16.9417 104.593 17.425C104.143 17.9083 103.566 18.15 102.862 18.15C102.158 18.15 101.581 17.9083 101.132 17.425C100.682 16.9417 100.457 16.33 100.457 15.59C100.457 14.8567 100.682 14.25 101.132 13.77ZM107.36 18V15.22C107.36 14.84 107.456 14.525 107.648 14.275C107.841 14.025 108.11 13.9 108.455 13.9C109.185 13.9 109.55 14.3033 109.55 15.11V18H110.469V14.95C110.469 14.39 110.324 13.9333 110.034 13.58C109.744 13.2267 109.329 13.05 108.788 13.05C108.136 13.05 107.653 13.3267 107.34 13.88V13.19H106.441V18H107.36ZM115.612 11.67V13.19H116.629V14.04H115.612V16.54C115.612 16.7667 115.663 16.9333 115.764 17.04C115.865 17.1467 116.033 17.2 116.268 17.2C116.404 17.2 116.525 17.1867 116.629 17.16V17.96C116.473 18.02 116.264 18.05 116.004 18.05C115.599 18.05 115.28 17.93 115.045 17.69C114.811 17.45 114.693 17.1133 114.693 16.68V14.04H113.794V13.19H114.048C114.289 13.19 114.47 13.1217 114.591 12.985C114.711 12.8483 114.772 12.67 114.772 12.45V11.67H115.612ZM118.771 18V15.17C118.784 14.7967 118.885 14.4917 119.074 14.255C119.263 14.0183 119.527 13.9 119.866 13.9C120.596 13.9 120.961 14.3033 120.961 15.11V18H121.88V14.95C121.88 14.39 121.735 13.9333 121.445 13.58C121.155 13.2267 120.739 13.05 120.198 13.05C119.559 13.05 119.084 13.2833 118.771 13.75V10.76H117.852V18H118.771ZM123.943 15.1H126.515C126.502 14.74 126.384 14.445 126.163 14.215C125.941 13.985 125.628 13.87 125.224 13.87C124.859 13.87 124.559 13.9917 124.324 14.235C124.09 14.4783 123.963 14.7667 123.943 15.1ZM127.444 16.63L126.652 16.35C126.443 16.9967 126.003 17.32 125.332 17.32C124.934 17.32 124.6 17.1833 124.329 16.91C124.059 16.6367 123.92 16.2867 123.914 15.86H127.453C127.466 15.78 127.473 15.68 127.473 15.56C127.473 14.7933 127.274 14.1817 126.876 13.725C126.479 13.2683 125.925 13.04 125.214 13.04C124.602 13.04 124.074 13.28 123.63 13.76C123.187 14.24 122.965 14.8467 122.965 15.58C122.965 16.3667 123.195 16.9917 123.655 17.455C124.114 17.9183 124.673 18.15 125.332 18.15C125.86 18.15 126.309 18.0083 126.681 17.725C127.052 17.4417 127.307 17.0767 127.444 16.63Z" fill="black"/>
<path fill-rule="evenodd" clip-rule="evenodd" d="M61.7173 37H63.7667L59.4489 25.656H57.2743L52.9564 37H54.9433L55.9758 34.152H60.6691L61.7173 37ZM58.3225 27.736L60.0121 32.376H56.6329L58.3225 27.736ZM66.8956 40.04V36.12C67.2867 36.712 68.1159 37.192 69.211 37.192C71.4012 37.192 72.7936 35.432 72.7936 33.096C72.7936 30.792 71.5264 29.032 69.2736 29.032C68.1002 29.032 67.2242 29.592 66.8487 30.264V29.208H65.0965V40.04H66.8956ZM70.9788 33.096C70.9788 34.584 70.134 35.544 68.9294 35.544C67.7404 35.544 66.88 34.584 66.88 33.096C66.88 31.64 67.7404 30.68 68.9294 30.68C70.1497 30.68 70.9788 31.64 70.9788 33.096ZM76.3449 40.04V36.12C76.736 36.712 77.5651 37.192 78.6602 37.192C80.8505 37.192 82.2428 35.432 82.2428 33.096C82.2428 30.792 80.9756 29.032 78.7228 29.032C77.5495 29.032 76.6734 29.592 76.2979 30.264V29.208H74.5458V40.04H76.3449ZM80.4281 33.096C80.4281 34.584 79.5833 35.544 78.3786 35.544C77.1897 35.544 76.3292 34.584 76.3292 33.096C76.3292 31.64 77.1897 30.68 78.3786 30.68C79.5989 30.68 80.4281 31.64 80.4281 33.096ZM95.3216 28.312C95.0713 27.048 94.0544 25.416 91.4418 25.416C89.3767 25.416 87.6714 26.984 87.6714 28.888C87.6714 30.584 88.7978 31.72 90.4874 32.072L92.0519 32.408C93.0062 32.616 93.5381 33.208 93.5381 33.944C93.5381 34.824 92.8498 35.512 91.52 35.512C89.9242 35.512 89.0951 34.424 88.9856 33.24L87.2334 33.752C87.4055 35.384 88.704 37.24 91.52 37.24C94.0544 37.24 95.4467 35.56 95.4467 33.8C95.4467 32.2 94.3986 30.936 92.443 30.536L90.8473 30.2C89.9868 30.008 89.5488 29.464 89.5488 28.744C89.5488 27.88 90.331 27.112 91.4574 27.112C92.9436 27.112 93.5225 28.152 93.632 28.856L95.3216 28.312ZM99.5456 26.824H97.9029V27.992C97.9029 28.68 97.5431 29.208 96.7296 29.208H96.3385V30.856H97.7465V34.776C97.7465 36.232 98.6226 37.096 100.031 37.096C100.688 37.096 101.032 36.968 101.141 36.92V35.384L100.941 35.4159C100.817 35.4323 100.659 35.448 100.516 35.448C99.8428 35.448 99.5456 35.16 99.5456 34.472V30.856H101.126V29.208H99.5456V26.824ZM106.304 35.576C105.193 35.576 104.176 34.712 104.176 33.096C104.176 31.48 105.193 30.648 106.304 30.648C107.43 30.648 108.432 31.48 108.432 33.096C108.432 34.728 107.43 35.576 106.304 35.576ZM106.304 28.968C104.036 28.968 102.362 30.712 102.362 33.096C102.362 35.496 104.036 37.24 106.304 37.24C108.588 37.24 110.262 35.496 110.262 33.096C110.262 30.712 108.588 28.968 106.304 28.968ZM116.473 29.16C116.395 29.144 116.207 29.112 115.988 29.112C114.987 29.112 114.142 29.608 113.782 30.456V29.208H112.014V37H113.829V33.288C113.829 31.832 114.47 31 115.878 31C116.066 31 116.269 31.016 116.473 31.048V29.16ZM119.226 32.248C119.289 31.416 119.946 30.52 121.088 30.52C122.34 30.52 122.934 31.336 122.965 32.248H119.226ZM123.169 34.28L124.702 34.776C124.295 36.136 123.09 37.24 121.26 37.24C119.195 37.24 117.365 35.704 117.365 33.064C117.365 30.6 119.148 28.968 121.072 28.968C123.419 28.968 124.796 30.552 124.796 33.016C124.796 33.32 124.764 33.576 124.749 33.608H119.179C119.226 34.792 120.134 35.64 121.26 35.64C122.355 35.64 122.918 35.048 123.169 34.28Z" fill="black"/>
<path fill-rule="evenodd" clip-rule="evenodd" d="M30.6962 14.5376C31.546 13.6005 32.1211 12.2986 31.9641 11C30.7385 11.0451 29.2536 11.7405 28.3755 12.6773C27.5863 13.5075 26.8966 14.8334 27.0808 16.1059C28.4489 16.2022 29.8445 15.4737 30.6962 14.5376ZM33.3047 23.502C33.2782 20.5912 35.5417 19.1944 35.6433 19.1258C34.3712 17.1502 32.3889 16.8795 31.6836 16.8493C29.9973 16.6669 28.3932 17.902 27.5366 17.902C26.6832 17.902 25.3631 16.8737 23.9639 16.9009C22.1252 16.9318 20.4304 18.035 19.4849 19.7834C17.5746 23.3 18.9949 28.5109 20.8573 31.3629C21.7671 32.7597 22.8512 34.3261 24.2747 34.269C25.6474 34.2131 26.1657 33.3279 27.8238 33.3279C29.4808 33.3279 29.9472 34.269 31.3975 34.2407C32.8732 34.2131 33.8085 32.8174 34.712 31.4171C35.7559 29.7983 36.1856 28.23 36.2117 28.1505C36.1785 28.133 33.3347 26.979 33.3047 23.502Z" fill="black"/>
</svg>
