<svg width="71" height="99" viewBox="0 0 71 99" fill="none" xmlns="http://www.w3.org/2000/svg">
<path d="M20.4014 0.5H51.6768C52.7428 0.500399 53.7932 0.758096 54.7373 1.25098C55.6815 1.74399 56.4918 2.45821 57.0986 3.33105C57.7053 4.20374 58.0912 5.20944 58.2227 6.2627C58.354 7.31604 58.2274 8.38586 57.8535 9.37988L50.8047 28.1182L50.5508 28.7939H65.6816C66.5891 28.795 67.4783 29.0508 68.2461 29.5322C69.0137 30.0135 69.6292 30.7009 70.0225 31.5146C70.4158 32.3286 70.5708 33.2372 70.4697 34.1348C70.3687 35.0323 70.0158 35.8838 69.4512 36.5908L22.5527 95.3008C16.8267 102.47 5.3943 96.5474 7.96289 87.7744L17.0488 56.7285L17.2363 56.0879H5.33105C4.57913 56.089 3.83737 55.9152 3.16504 55.5801C2.4926 55.2449 1.90772 54.7572 1.45801 54.1572C1.00849 53.5573 0.705776 52.8609 0.574219 52.124C0.442691 51.3871 0.48586 50.6295 0.700195 49.9121L14.0732 5.19434C14.4795 3.8378 15.3151 2.64765 16.4551 1.80176C17.5952 0.955867 18.9795 0.498951 20.4014 0.5ZM19.9229 6.93066L7.23145 49.3711L7.03906 50.0146H21.3037C21.7773 50.0147 22.2445 50.124 22.668 50.335C23.0913 50.5459 23.4593 50.8525 23.7432 51.2295C24.027 51.6067 24.2191 52.0452 24.3037 52.5088C24.3882 52.9722 24.3628 53.4492 24.2305 53.9014L13.8252 89.4482C13.6427 89.9679 13.6629 90.5372 13.8809 91.043L13.8926 91.0684C14.1234 91.5308 14.5015 91.9042 14.9668 92.1299V92.1289C15.4635 92.3856 15.9865 92.4517 16.4307 92.3779L16.4395 92.377L16.4482 92.375C16.9836 92.2665 17.4591 91.9631 17.7832 91.5244L62.3887 35.6797L63.0381 34.8672H46.1475C45.6543 34.8672 45.1681 34.7485 44.7314 34.5205C44.2949 34.2925 43.921 33.9621 43.6406 33.5586C43.3603 33.155 43.1815 32.69 43.1211 32.2031C43.0607 31.7164 43.1198 31.2219 43.293 30.7627L43.2939 30.7617L52.1523 7.25L52.4072 6.57324H20.0293L19.9229 6.93066Z" fill="white" stroke="white"/>
</svg>
