<svg width="70" height="98" viewBox="0 0 70 98" fill="none" xmlns="http://www.w3.org/2000/svg">
<path d="M19.9016 1.63815e-06H51.177C52.243 0.000401638 53.2935 0.258078 54.2376 0.750978C55.1818 1.24398 55.992 1.95816 56.5988 2.83106C57.2053 3.70366 57.5913 4.7094 57.7233 5.7627C57.8543 6.816 57.7273 7.88588 57.3533 8.87988L50.3049 27.6182L50.051 28.2939H65.1823C66.0893 28.2949 66.9784 28.551 67.7464 29.032C68.5144 29.513 69.1294 30.2011 69.5224 31.0151C69.9164 31.8291 70.0714 32.737 69.9704 33.635C69.8694 34.532 69.5163 35.3841 68.9513 36.0911L22.0529 94.801C16.3269 101.97 4.89455 96.0469 7.46315 87.2739L16.549 56.228L16.7365 55.5881H4.83132C4.07932 55.5891 3.33764 55.4151 2.66524 55.0801C1.99284 54.7451 1.40797 54.257 0.958268 53.657C0.508768 53.057 0.206018 52.361 0.0744179 51.624C-0.0570821 50.887 -0.0138445 50.1291 0.200456 49.4121L13.5734 4.69434C13.9797 3.33784 14.8153 2.14766 15.9553 1.30176C17.0954 0.455859 18.4797 -0.000998362 19.9016 1.63815e-06Z" fill="#231F20"/>
</svg>
