<svg width="164" height="50" viewBox="0 0 164 50" fill="none" xmlns="http://www.w3.org/2000/svg">
<rect width="163.289" height="50" rx="25" fill="black"/>
<path fill-rule="evenodd" clip-rule="evenodd" d="M72.072 12.3699C72.072 12.5566 72.1339 12.7166 72.2578 12.8499C72.3881 12.9766 72.5446 13.0399 72.7271 13.0399C72.9096 13.0399 73.0661 12.9749 73.1964 12.8449C73.3268 12.7149 73.392 12.5566 73.392 12.3699C73.392 12.1766 73.3268 12.0149 73.1964 11.8849C73.0661 11.7549 72.9096 11.6899 72.7271 11.6899C72.5446 11.6899 72.3898 11.7566 72.2627 11.8899C72.1355 12.0233 72.072 12.1833 72.072 12.3699ZM58.9111 18.9999H59.6835V15.5299H56.3689V16.4099H58.7742C58.7612 16.6099 58.7139 16.8099 58.6324 17.0099C58.551 17.2099 58.4304 17.4083 58.2707 17.6049C58.111 17.8016 57.8893 17.9599 57.6058 18.0799C57.3222 18.1999 56.9979 18.2599 56.6329 18.2599C55.968 18.2599 55.3993 18.0149 54.9267 17.5249C54.4541 17.0349 54.2178 16.3433 54.2178 15.4499C54.2178 14.5633 54.459 13.8766 54.9413 13.3899C55.4237 12.9033 56.0006 12.6599 56.672 12.6599C57.2065 12.6599 57.6677 12.8016 58.0555 13.0849C58.4434 13.3683 58.7155 13.7666 58.872 14.2799L59.7422 13.8999C59.5401 13.2533 59.1637 12.7349 58.6129 12.3449C58.0621 11.9549 57.4151 11.7599 56.672 11.7599C56.0853 11.7599 55.5361 11.8966 55.0244 12.1699C54.5127 12.4433 54.0874 12.8666 53.7484 13.4399C53.4095 14.0133 53.24 14.6833 53.24 15.4499C53.24 16.2166 53.4013 16.8866 53.724 17.4599C54.0467 18.0333 54.459 18.4583 54.9609 18.7349C55.4628 19.0116 56.0104 19.1499 56.6035 19.1499C57.1446 19.1499 57.6074 19.0366 57.992 18.8099C58.3766 18.5833 58.6536 18.3133 58.8231 17.9999L58.9111 18.9999ZM64.2302 16.0999H61.6587C61.6782 15.7666 61.8053 15.4783 62.04 15.2349C62.2747 14.9916 62.5745 14.8699 62.9395 14.8699C63.3437 14.8699 63.6566 14.9849 63.8782 15.2149C64.0998 15.4449 64.2172 15.7399 64.2302 16.0999ZM64.3671 17.3499L65.1591 17.6299C65.0222 18.0766 64.768 18.4416 64.3964 18.7249C64.0249 19.0083 63.5751 19.1499 63.0471 19.1499C62.3887 19.1499 61.8298 18.9183 61.3702 18.4549C60.9107 17.9916 60.6809 17.3666 60.6809 16.5799C60.6809 15.8466 60.9025 15.2399 61.3458 14.7599C61.789 14.2799 62.317 14.0399 62.9298 14.0399C63.6403 14.0399 64.1944 14.2683 64.592 14.7249C64.9896 15.1816 65.1884 15.7933 65.1884 16.5599C65.1884 16.6799 65.1819 16.7799 65.1689 16.8599H61.6293C61.6358 17.2866 61.7744 17.6366 62.0449 17.9099C62.3154 18.1833 62.6495 18.3199 63.0471 18.3199C63.7185 18.3199 64.1585 17.9966 64.3671 17.3499ZM67.5938 14.1899V12.6699H66.7529V13.4499C66.7529 13.6699 66.6926 13.8483 66.572 13.9849C66.4514 14.1216 66.2705 14.1899 66.0293 14.1899H65.7751V15.0399H66.6747V17.6799C66.6747 18.1133 66.792 18.4499 67.0267 18.6899C67.2613 18.9299 67.5807 19.0499 67.9849 19.0499C68.2456 19.0499 68.4542 19.0199 68.6107 18.9599V18.1599C68.5064 18.1866 68.3858 18.1999 68.2489 18.1999C68.0142 18.1999 67.8464 18.1466 67.7453 18.0399C67.6443 17.9333 67.5938 17.7666 67.5938 17.5399V15.0399H68.6107V14.1899H67.5938ZM73.1867 18.9999H72.2773V14.1899H73.1867V18.9999ZM75.9831 12.6699V14.1899H77V15.0399H75.9831V17.5399C75.9831 17.7666 76.0336 17.9333 76.1347 18.0399C76.2357 18.1466 76.4035 18.1999 76.6382 18.1999C76.7751 18.1999 76.8957 18.1866 77 18.1599V18.9599C76.8435 19.0199 76.635 19.0499 76.3742 19.0499C75.9701 19.0499 75.6507 18.9299 75.416 18.6899C75.1813 18.4499 75.064 18.1133 75.064 17.6799V15.0399H74.1644V14.1899H74.4187C74.6598 14.1899 74.8407 14.1216 74.9613 13.9849C75.0819 13.8483 75.1422 13.6699 75.1422 13.4499V12.6699H75.9831ZM82.6809 18.3099C82.2702 18.3099 81.9215 18.1599 81.6347 17.8599C81.3544 17.5533 81.2142 17.1299 81.2142 16.5899C81.2142 16.0566 81.356 15.6383 81.6395 15.3349C81.9231 15.0316 82.2702 14.8799 82.6809 14.8799C83.0915 14.8799 83.4387 15.0316 83.7222 15.3349C84.0058 15.6383 84.1475 16.0566 84.1475 16.5899C84.1475 17.1299 84.0058 17.5516 83.7222 17.8549C83.4387 18.1583 83.0915 18.3099 82.6809 18.3099ZM80.9502 14.7699C81.4065 14.2833 81.9834 14.0399 82.6809 14.0399C83.3784 14.0399 83.9536 14.2816 84.4067 14.7649C84.8597 15.2483 85.0862 15.8566 85.0862 16.5899C85.0862 17.3299 84.8613 17.9416 84.4115 18.4249C83.9618 18.9083 83.3849 19.1499 82.6809 19.1499C81.9769 19.1499 81.4 18.9083 80.9502 18.4249C80.5004 17.9416 80.2755 17.3299 80.2755 16.5899C80.2755 15.8566 80.5004 15.2499 80.9502 14.7699ZM87.1787 18.9999V16.2199C87.1787 15.8399 87.2748 15.5249 87.4671 15.2749C87.6594 15.0249 87.9283 14.8999 88.2738 14.8999C89.0038 14.8999 89.3689 15.3033 89.3689 16.1099V18.9999H90.288V15.9499C90.288 15.3899 90.143 14.9333 89.8529 14.5799C89.5628 14.2266 89.1473 14.0499 88.6062 14.0499C87.9544 14.0499 87.472 14.3266 87.1591 14.8799V14.1899H86.2595V18.9999H87.1787Z" fill="white"/>
<path fill-rule="evenodd" clip-rule="evenodd" d="M63.9701 30.256V36H62.4526L62.3118 34.56C61.8268 35.392 60.6848 36.24 58.9169 36.24C56.0227 36.24 53.457 34.064 53.457 30.32C53.457 26.592 56.1635 24.416 59.0421 24.416C61.7329 24.416 63.4538 26 64.0483 27.872L62.2805 28.56C61.905 27.28 60.8099 26.192 59.0421 26.192C57.243 26.192 55.3657 27.504 55.3657 30.32C55.3657 33.088 57.1178 34.48 59.0265 34.48C61.2636 34.48 62.1084 32.912 62.2023 31.936H58.5415V30.256H63.9701ZM67.3024 32.096C67.3024 33.712 68.3193 34.576 69.43 34.576C70.5564 34.576 71.5577 33.728 71.5577 32.096C71.5577 30.48 70.5564 29.648 69.43 29.648C68.3193 29.648 67.3024 30.48 67.3024 32.096ZM69.43 27.968C67.1616 27.968 65.4876 29.712 65.4876 32.096C65.4876 34.496 67.1616 36.24 69.43 36.24C71.7141 36.24 73.3881 34.496 73.3881 32.096C73.3881 29.712 71.7141 27.968 69.43 27.968ZM76.3605 32.096C76.3605 33.712 77.3774 34.576 78.4881 34.576C79.6145 34.576 80.6158 33.728 80.6158 32.096C80.6158 30.48 79.6145 29.648 78.4881 29.648C77.3774 29.648 76.3605 30.48 76.3605 32.096ZM78.4881 27.968C76.2197 27.968 74.5457 29.712 74.5457 32.096C74.5457 34.496 76.2197 36.24 78.4881 36.24C80.7722 36.24 82.4462 34.496 82.4462 32.096C82.4462 29.712 80.7722 27.968 78.4881 27.968ZM87.2803 39.28C85.2622 39.28 83.8542 38 83.6508 36.432L85.3248 35.984C85.4499 36.944 86.1852 37.664 87.2334 37.664C88.6727 37.664 89.3923 36.912 89.3923 35.328V34.512C89.0638 35.12 88.2972 35.648 87.1864 35.648C85.1527 35.648 83.6664 34.048 83.6664 31.856C83.6664 29.776 85.0901 28.064 87.1864 28.064C88.3754 28.064 89.1107 28.56 89.4392 29.2V28.208H91.1914V35.264C91.1914 37.344 90.1432 39.28 87.2803 39.28ZM87.4837 34.064C86.2947 34.064 85.4969 33.216 85.4969 31.856C85.4969 30.528 86.326 29.664 87.4837 29.664C88.6101 29.664 89.4393 30.528 89.4393 31.856C89.4393 33.2 88.6414 34.064 87.4837 34.064ZM95.2277 24.416V36H93.4129V24.416H95.2277ZM98.8416 31.248C98.9041 30.416 99.5612 29.52 100.703 29.52C101.955 29.52 102.549 30.336 102.581 31.248H98.8416ZM100.875 34.64C101.97 34.64 102.534 34.048 102.784 33.28L104.317 33.776C103.91 35.136 102.706 36.24 100.875 36.24C98.8103 36.24 96.9799 34.704 96.9799 32.064C96.9799 29.6 98.7633 27.968 100.688 27.968C103.034 27.968 104.411 29.552 104.411 32.016C104.411 32.32 104.38 32.576 104.364 32.608H98.7946C98.8416 33.792 99.7489 34.64 100.875 34.64ZM112.061 29.872V26.352H114.017C115.206 26.352 115.925 27.04 115.925 28.128C115.925 29.2 115.206 29.872 114.017 29.872H112.061ZM117.834 28.112C117.834 30.112 116.426 31.568 114.298 31.568H112.061V36H110.184V24.656H114.298C116.426 24.656 117.834 26.128 117.834 28.112ZM121.26 36V24.416H119.445V36H121.26ZM125.719 36.24C124.123 36.24 123.137 35.12 123.137 33.888C123.137 32.496 124.139 31.728 125.437 31.536L127.393 31.232C127.831 31.168 127.956 30.944 127.956 30.672C127.956 30.016 127.518 29.488 126.517 29.488C125.562 29.488 125.03 30.112 124.952 30.896L123.294 30.512C123.435 29.168 124.624 27.968 126.501 27.968C128.848 27.968 129.739 29.328 129.739 30.88L129.741 34.9229C129.748 35.3097 129.778 35.6107 129.802 35.7973L129.833 36H128.144C128.128 35.952 128.065 35.632 128.065 35.008C127.706 35.6 126.955 36.24 125.719 36.24ZM126.063 34.784C125.343 34.784 124.952 34.304 124.952 33.776C124.952 33.136 125.406 32.816 125.969 32.72L127.956 32.416V32.768C127.956 34.288 127.08 34.784 126.063 34.784ZM132.305 39.152H134.245L139.095 28.208H137.17L135.121 33.136L132.931 28.208H130.881L134.135 35.072L132.305 39.152Z" fill="white"/>
<path d="M19.6492 14.1295C19.5942 14.3301 19.5555 14.5454 19.5555 14.7921V35.1066C19.5555 35.35 19.5927 35.5641 19.6467 35.7621L30.7224 24.9603L19.6492 14.1295Z" fill="#48A0DC"/>
<path d="M22.1136 13.3406C21.598 13.0169 21.0898 12.9359 20.6606 13.0477L31.7826 23.9264L35.045 20.7453L22.1136 13.3406Z" fill="#88C057"/>
<path d="M39.8124 23.4753L36.3604 21.4987L32.8253 24.9464L36.4268 28.4699L39.7858 26.5713C41.4239 25.6102 40.8256 24.0614 39.8124 23.4753Z" fill="#FFCC66"/>
<path d="M31.7647 25.98L20.6289 36.8392C21.0646 36.9649 21.5845 36.8902 22.1132 36.5584L35.0851 29.2275L31.7647 25.98Z" fill="#ED7161"/>
</svg>
