<svg width="89" height="89" viewBox="0 0 89 89" fill="none" xmlns="http://www.w3.org/2000/svg">
<path fill-rule="evenodd" clip-rule="evenodd" d="M44.3324 13.4209C48.7269 9.30279 54.4939 7.01025 60.4846 7C66.9604 7 73.1436 9.69436 77.6685 14.4379C82.1711 19.1853 84.6792 25.5131 84.6658 32.0917C84.6792 38.6703 82.1711 44.998 77.6685 49.7454C74.6819 52.8762 71.6991 56.0828 68.7013 59.3009C62.6082 65.8432 56.4512 72.4577 50.0542 78.6851L50.0429 78.7002C48.4545 80.2216 46.3368 81.0475 44.1498 80.9985C41.9628 80.9494 39.8833 80.0294 38.3631 78.4384L10.9927 49.7454C1.66911 39.966 1.66911 24.2173 10.9927 14.4417C15.3022 9.87426 21.2163 7.20644 27.4556 7.0154C33.6949 6.82436 39.7577 9.12547 44.3324 13.4209Z" fill="white"/>
</svg>
