<svg width="81" height="74" viewBox="0 0 81 74" fill="none" xmlns="http://www.w3.org/2000/svg">
<path fill-rule="evenodd" clip-rule="evenodd" d="M40.3321 6.42114C44.7271 2.30314 50.494 0.01 56.484 0C62.96 0 69.144 2.69399 73.668 7.43799C78.171 12.185 80.679 18.513 80.666 25.092C80.679 31.67 78.171 37.9981 73.668 42.7451C70.682 45.8761 67.699 49.083 64.701 52.301C58.608 58.843 52.451 65.4581 46.054 71.6851L46.043 71.7002C44.454 73.2212 42.337 74.0471 40.15 73.998C37.963 73.949 35.8831 73.029 34.3631 71.438L6.993 42.7451C-2.331 32.9661 -2.331 17.2171 6.993 7.44214C11.302 2.87414 17.216 0.206137 23.455 0.0151367C29.695 -0.175863 35.758 2.12514 40.3321 6.42114Z" fill="black"/>
</svg>
