<svg width="96" height="96" viewBox="0 0 96 96" fill="none" xmlns="http://www.w3.org/2000/svg">
<path d="M47.6667 0C73.993 0 95.3333 21.3404 95.3333 47.6667C95.3333 73.993 73.993 95.3333 47.6667 95.3333C21.3404 95.3333 0 73.993 0 47.6667C0 21.3404 21.3404 0 47.6667 0ZM47.6667 23.8333C47.2078 23.8333 46.752 23.8463 46.2996 23.8718C44.2996 23.9845 43.8977 26.8229 45.1327 28.4001C46.3217 29.9187 47.1244 31.7032 47.4718 33.6003C47.8192 35.4974 47.7009 37.4505 47.1271 39.2919C46.5534 41.1333 45.5412 42.8078 44.1777 44.1718C42.8141 45.5358 41.1398 46.5485 39.2986 47.1228C37.4574 47.6971 35.5044 47.816 33.6071 47.4692C31.7099 47.1223 29.9252 46.3202 28.4062 45.1316C26.8271 43.8959 23.9835 44.2965 23.8684 46.2983C23.6933 49.3422 24.103 52.4096 25.0948 55.3303C26.7082 60.0814 29.7799 64.2021 33.8722 67.1053C37.9646 70.0085 42.8687 71.546 47.886 71.499C52.9034 71.4519 57.7778 69.8225 61.8149 66.843C65.8521 63.8636 68.8459 59.686 70.3698 54.9055C71.8938 50.125 71.8701 44.9854 70.3022 40.2192C68.7343 35.4529 65.7022 31.303 61.6378 28.3608C57.5735 25.4187 52.6842 23.8342 47.6667 23.8333Z" fill="white"/>
</svg>
