<svg width="101" height="101" viewBox="0 0 101 101" fill="none" xmlns="http://www.w3.org/2000/svg">
<path d="M31.5624 23.5665L21.0416 29.4582L26.9333 18.9373L21.0416 8.4165L31.5624 14.3082L42.0833 8.4165L36.1916 18.9373L42.0833 29.4582L31.5624 23.5665ZM82.0624 64.8082L92.5833 58.9165L86.6916 69.4373L92.5833 79.9582L82.0624 74.0665L71.5416 79.9582L77.4333 69.4373L71.5416 58.9165L82.0624 64.8082ZM92.5833 8.4165L86.6916 18.9373L92.5833 29.4582L82.0624 23.5665L71.5416 29.4582L77.4333 18.9373L71.5416 8.4165L82.0624 14.3082L92.5833 8.4165ZM56.1391 53.7823L66.4074 43.514L57.4858 34.5923L47.2174 44.8607L56.1391 53.7823ZM60.4737 30.6786L70.3212 40.5261C71.9624 42.0832 71.9624 44.8186 70.3212 46.4598L21.2099 95.5711C19.5687 97.2123 16.8333 97.2123 15.2762 95.5711L5.42869 85.7236C3.78744 84.1665 3.78744 81.4311 5.42869 79.7898L54.5399 30.6786C56.1812 29.0373 58.9166 29.0373 60.4737 30.6786Z" fill="white"/>
</svg>
