<svg width="1238" height="420" viewBox="0 0 1238 420" fill="none" xmlns="http://www.w3.org/2000/svg">
<path d="M1201.16 37.7977H36.4331C17.6924 37.7977 2.5 52.9901 2.5 71.7308V383.159C2.5 401.899 17.6924 417.092 36.4331 417.092H1201.16C1219.9 417.092 1235.1 401.899 1235.1 383.159V71.7308C1235.1 52.9901 1219.9 37.7977 1201.16 37.7977Z" fill="#B2F927" stroke="#03624C" stroke-width="5" stroke-miterlimit="10"/>
<path d="M92.0638 287.921C85.0941 287.921 79.4242 282.251 79.4242 275.281V152.521C79.4242 145.546 85.099 139.871 92.0736 139.871H133.724C139.26 139.871 143.764 135.363 143.764 129.821V117.351C143.764 108.623 150.87 101.521 159.604 101.521H232.794C241.523 101.521 248.624 108.623 248.624 117.351V129.821C248.624 135.363 253.133 139.871 258.674 139.871H300.324C307.293 139.871 312.964 145.546 312.964 152.521V275.281C312.964 282.251 307.293 287.921 300.324 287.921H92.0638ZM196.194 146.011C190.833 146.011 185.502 146.635 180.349 147.866C149.705 155.196 128.304 182.351 128.304 213.901C128.304 251.336 158.768 281.791 196.212 281.791H196.327C214.474 281.756 231.579 274.501 244.49 261.36C257.403 248.218 264.358 230.986 264.074 212.84C263.598 181.808 242.205 155.089 212.05 147.866C206.896 146.635 201.561 146.011 196.194 146.011ZM162.574 107.841C159.833 107.841 157.33 109.342 156.04 111.758C154.747 114.179 154.894 117.101 156.422 119.384L163.745 130.258C165.109 132.305 167.41 133.531 169.894 133.531H222.504C224.974 133.531 227.273 132.308 228.653 130.258L235.963 119.387C237.496 117.107 237.648 114.186 236.359 111.765C235.07 109.345 232.562 107.841 229.814 107.841H162.574Z" fill="black"/>
<path d="M232.794 103.521C240.42 103.521 246.624 109.725 246.624 117.351V129.821C246.624 136.466 252.03 141.871 258.674 141.871H300.324C306.191 141.871 310.964 146.649 310.964 152.521V275.281C310.964 281.148 306.191 285.921 300.324 285.921H92.0641C86.1972 285.921 81.424 281.148 81.424 275.281V152.521C81.424 146.649 86.2016 141.871 92.0741 141.871H133.724C140.363 141.871 145.764 136.466 145.764 129.821V117.351C145.764 109.725 151.973 103.521 159.604 103.521H232.794ZM169.894 135.531H222.504C225.641 135.531 228.56 133.978 230.313 131.373L237.624 120.503C239.57 117.607 239.762 113.899 238.124 110.825C236.486 107.751 233.302 105.841 229.814 105.841H162.574C159.094 105.841 155.914 107.748 154.276 110.817C152.635 113.89 152.82 117.599 154.766 120.505L162.076 131.36C163.817 133.972 166.74 135.531 169.894 135.531ZM196.213 283.792H196.332C215.018 283.755 232.627 276.287 245.917 262.762C259.208 249.235 266.366 231.495 266.074 212.81C265.584 180.863 243.56 153.357 212.514 145.921C207.209 144.654 201.719 144.011 196.194 144.011C190.676 144.011 185.189 144.654 179.883 145.921C148.337 153.468 126.304 181.422 126.304 213.901C126.304 252.439 157.665 283.792 196.213 283.792ZM232.794 99.5212H159.604C149.754 99.5212 141.764 107.501 141.764 117.351V129.821C141.764 134.271 138.164 137.871 133.724 137.871H92.0742C83.9841 137.871 77.4241 144.431 77.4241 152.521V275.281C77.4241 283.371 83.9842 289.921 92.0642 289.921H300.324C308.414 289.921 314.964 283.371 314.964 275.281V152.521C314.964 144.431 308.404 137.871 300.324 137.871H258.674C254.234 137.871 250.624 134.271 250.624 129.821V117.351C250.624 107.501 242.644 99.5212 232.794 99.5212ZM169.894 131.531C168.094 131.531 166.404 130.641 165.404 129.141L158.084 118.271C155.674 114.671 158.244 109.841 162.574 109.841H229.814C234.154 109.841 236.724 114.671 234.304 118.271L226.994 129.141C225.984 130.641 224.304 131.531 222.504 131.531H169.894ZM196.213 279.792C159.812 279.792 130.304 250.296 130.304 213.901C130.304 182.801 151.844 156.741 180.814 149.811C185.754 148.631 190.904 148.011 196.194 148.011C201.494 148.011 206.644 148.631 211.584 149.811C240.224 156.671 261.604 182.231 262.074 212.871C262.644 249.271 232.734 279.721 196.324 279.791C196.288 279.791 196.249 279.792 196.213 279.792Z" fill="black"/>
<path d="M196.212 277.961C160.88 277.961 132.135 249.224 132.135 213.901C132.135 184.131 152.328 158.508 181.24 151.592C186.101 150.431 191.133 149.842 196.194 149.842C201.262 149.842 206.297 150.431 211.16 151.592C239.61 158.407 259.794 183.617 260.243 212.899C260.511 230.013 253.946 246.27 241.757 258.675C229.57 271.079 213.433 277.927 196.32 277.961H196.212Z" fill="white"/>
<path d="M196.194 151.673C201.12 151.673 206.012 152.245 210.731 153.372C238.369 159.992 257.977 184.482 258.413 212.928C258.673 229.548 252.295 245.339 240.452 257.392C228.61 269.443 212.936 276.098 196.319 276.13H196.213C161.89 276.13 133.966 248.214 133.966 213.901C133.966 199.627 138.665 186.203 147.555 175.078C156.188 164.278 168.302 156.569 181.665 153.373C186.387 152.245 191.275 151.673 196.194 151.673ZM196.194 148.011C190.904 148.011 185.754 148.631 180.814 149.811C151.844 156.741 130.304 182.801 130.304 213.901C130.304 250.296 159.812 279.792 196.213 279.792C196.249 279.792 196.289 279.791 196.324 279.791C232.734 279.721 262.644 249.271 262.074 212.871C261.604 182.231 240.224 156.671 211.584 149.811C206.644 148.631 201.494 148.011 196.194 148.011Z" fill="black"/>
<path d="M256.208 213.906C256.208 247.05 229.342 273.917 196.197 273.917C163.052 273.917 136.186 247.051 136.186 213.906C136.186 210.115 136.534 206.407 137.215 202.807C142.913 209.592 151.465 213.906 161.02 213.906C178.181 213.906 192.1 199.987 192.1 182.826C192.1 171.885 186.451 162.272 177.908 156.723C183.672 154.882 189.818 153.886 196.197 153.886C229.342 153.886 256.208 180.761 256.208 213.906Z" fill="url(#paint0_radial_318_59)"/>
<path d="M82.6999 303.292L84.7478 300.448H87.7975L84.792 303.292H82.6999ZM79.3114 303.969H82.1548L85.3371 306.945H82.3905L80.7257 305.384L79.1051 306.945H76.1586L79.3114 303.969ZM80.7552 329.546C74.4348 329.546 70.5012 325.317 70.5012 318.555V318.525C70.5012 311.763 74.4643 307.549 80.7552 307.549C87.0608 307.549 91.0092 311.778 91.0092 318.525V318.555C91.0092 325.317 87.0756 329.546 80.7552 329.546ZM80.7552 325.774C84.2911 325.774 86.4715 322.96 86.4715 318.555V318.525C86.4715 314.091 84.2469 311.321 80.7552 311.321C77.2782 311.321 75.0389 314.076 75.0389 318.525V318.555C75.0389 323.004 77.2635 325.774 80.7552 325.774ZM93.5138 329.177V313.384H97.8158V315.977H97.9042C98.7145 314.165 100.335 313.06 102.722 313.06C106.199 313.06 108.173 315.284 108.173 318.982V329.177H103.871V319.866C103.871 317.804 102.899 316.625 100.969 316.625C99.0386 316.625 97.8158 318.039 97.8158 320.102V329.177H93.5138ZM118.28 334.658C113.933 334.658 111.193 332.698 110.781 330.164L110.766 330.032H114.95L114.994 330.135C115.333 330.916 116.482 331.593 118.28 331.593C120.504 331.593 121.683 330.444 121.683 328.676V326.26H121.595C120.77 327.91 119.002 328.956 116.718 328.956C112.77 328.956 110.324 326.01 110.324 321.104V321.089C110.324 316.05 112.799 313.06 116.792 313.06C119.016 313.06 120.74 314.238 121.595 316.08H121.683V313.384H125.985V328.735C125.985 332.256 123.024 334.658 118.28 334.658ZM118.206 325.803C120.313 325.803 121.698 324.035 121.698 321.207V321.192C121.698 318.378 120.298 316.625 118.206 316.625C116.07 316.625 114.7 318.363 114.7 321.192V321.207C114.7 324.05 116.055 325.803 118.206 325.803ZM134.942 329.177V307.918H139.244V319.704H139.333L144.666 313.384H149.543L143.576 320.175L149.837 329.177H144.872L140.349 322.724L139.244 323.947V329.177H134.942ZM154.301 311.616H151.414L154.11 306.577H157.926L154.301 311.616ZM151.119 329.177V313.384H155.421V329.177H151.119ZM158.309 329.177V313.384H162.611V315.977H162.699C163.509 314.165 165.13 313.06 167.517 313.06C170.994 313.06 172.968 315.284 172.968 318.982V329.177H168.666V319.866C168.666 317.804 167.694 316.625 165.764 316.625C163.834 316.625 162.611 318.039 162.611 320.102V329.177H158.309ZM175.797 329.177V307.918H180.099V316.109H180.187C180.997 314.15 182.662 313.06 185.034 313.06C188.452 313.06 190.574 315.446 190.574 319.262V329.177H186.272V320.146C186.272 317.936 185.181 316.625 183.222 316.625C181.321 316.625 180.099 318.069 180.099 320.131V329.177H175.797ZM199.325 329.177V313.384H203.627V316.036H203.715C204.363 314.238 206.014 313.06 208.135 313.06C210.345 313.06 211.951 314.238 212.481 316.316H212.57C213.277 314.327 215.163 313.06 217.476 313.06C220.57 313.06 222.647 315.196 222.647 318.378V329.177H218.345V319.454C218.345 317.627 217.431 316.625 215.767 316.625C214.131 316.625 213.056 317.818 213.056 319.571V329.177H208.916V319.321C208.916 317.627 207.958 316.625 206.367 316.625C204.732 316.625 203.627 317.862 203.627 319.645V329.177H199.325ZM233.387 311.616H230.5L233.181 306.577H236.997L233.387 311.616ZM230.072 329.428C226.905 329.428 224.768 327.439 224.768 324.654V324.625C224.768 321.752 226.993 320.072 230.912 319.822L234.816 319.586V318.614C234.816 317.214 233.903 316.345 232.223 316.345C230.617 316.345 229.645 317.096 229.439 318.113L229.409 318.245H225.476L225.49 318.069C225.726 315.152 228.231 313.06 232.4 313.06C236.481 313.06 239.118 315.166 239.118 318.349V329.177H234.816V326.82H234.728C233.829 328.441 232.15 329.428 230.072 329.428ZM229.026 324.433C229.026 325.597 229.984 326.29 231.472 326.29C233.402 326.29 234.816 325.052 234.816 323.402V322.268L231.56 322.474C229.895 322.577 229.026 323.284 229.026 324.404V324.433ZM244.289 334.378C243.45 334.378 242.595 334.275 242.094 334.186V330.989C242.404 331.048 242.905 331.137 243.538 331.137C244.82 331.137 245.527 330.768 245.91 329.693L246.102 329.177L240.518 313.384H245.247L248.577 325.73H248.695L252.039 313.384H256.577L251.155 329.457C249.917 333.185 247.796 334.378 244.289 334.378ZM269.674 311.616V311.572C270.44 310.938 271.029 310.334 271.029 309.671C271.029 308.934 270.249 308.507 269.055 308.507C268.613 308.507 268.215 308.566 267.906 308.61V306.459C268.378 306.297 269.114 306.15 269.895 306.15C272.031 306.15 273.652 307.284 273.652 309.008C273.652 310.084 273.048 310.923 272.031 311.616H269.674ZM268.761 329.428C265.593 329.428 263.457 327.439 263.457 324.654V324.625C263.457 321.752 265.681 320.072 269.6 319.822L273.505 319.586V318.614C273.505 317.214 272.591 316.345 270.912 316.345C269.306 316.345 268.333 317.096 268.127 318.113L268.098 318.245H264.164L264.179 318.069C264.414 315.152 266.919 313.06 271.088 313.06C275.169 313.06 277.807 315.166 277.807 318.349V329.177H273.505V326.82H273.416C272.517 328.441 270.838 329.428 268.761 329.428ZM267.715 324.433C267.715 325.597 268.672 326.29 270.16 326.29C272.09 326.29 273.505 325.052 273.505 323.402V322.268L270.249 322.474C268.584 322.577 267.715 323.284 267.715 324.404V324.433ZM280.591 329.177V313.384H284.893V315.977H284.981C285.792 314.165 287.412 313.06 289.799 313.06C293.276 313.06 295.25 315.284 295.25 318.982V329.177H290.948V319.866C290.948 317.804 289.976 316.625 288.046 316.625C286.116 316.625 284.893 318.039 284.893 320.102V329.177H280.591ZM298.079 329.177V307.918H302.381V316.109H302.469C303.28 314.15 304.944 313.06 307.316 313.06C310.734 313.06 312.856 315.446 312.856 319.262V329.177H308.554V320.146C308.554 317.936 307.464 316.625 305.504 316.625C303.604 316.625 302.381 318.069 302.381 320.131V329.177H298.079Z" fill="#231F20"/>
<path d="M553.021 269.834C548.827 269.834 544.907 267.331 543.034 263.457C540.06 257.309 537.093 251.157 534.127 245.006L528.572 233.491C526.845 229.914 526.171 226.454 526.513 222.914C527.404 213.676 535.31 206.288 544.514 206.095C551.12 205.957 557.727 205.85 564.334 205.742L570.192 205.647C570.673 205.638 571.156 205.636 571.649 205.636L574.342 205.643H576.901L575.396 202.951C575.278 202.738 575.202 202.601 575.121 202.467L563.662 183.264L559.76 176.707C557.566 173.019 555.371 169.33 553.168 165.647C551.546 162.935 550.681 160.407 550.523 157.915C550.065 150.706 554.404 144.194 561.074 142.078C566.634 140.314 572.689 138.654 580.128 136.852C589.907 134.483 597.839 132.719 605.091 131.302C606.764 130.975 608.404 130.809 609.964 130.809C616.672 130.809 622.215 133.809 626.44 139.726C631.204 146.401 635.837 153.353 640.318 160.078C641.778 162.269 643.238 164.46 644.705 166.647C648.14 171.764 647.347 177.69 642.684 181.745C640.79 183.392 638.286 184.299 635.633 184.299C632.515 184.299 629.655 183.043 627.785 180.854C626.162 178.952 624.719 176.779 623.324 174.678C622.859 173.979 622.395 173.281 621.923 172.589C619.946 169.691 617.98 166.787 616.013 163.882C613.914 160.783 611.817 157.684 609.705 154.593C609.213 153.871 608.284 153.542 607.629 153.542C607.482 153.542 607.336 153.558 607.198 153.588C603.599 154.368 600.005 155.177 596.412 155.986L593.422 156.659C592.78 156.803 592.136 156.942 591.455 157.089L588.438 157.746L589.624 159.921C589.758 160.17 589.862 160.363 589.974 160.551L591.773 163.553C592.708 165.113 593.644 166.673 594.573 168.237C595.864 170.41 597.154 172.585 598.442 174.76C600.201 177.728 601.959 180.696 603.725 183.66C605.41 186.485 607.103 189.305 608.795 192.125C612.154 197.719 615.627 203.503 618.965 209.232C620.975 212.681 620.99 216.913 619.004 220.553C617.023 224.185 613.465 226.459 609.487 226.636C603.892 226.884 598.19 227.002 592.675 227.116C590.244 227.166 587.814 227.216 585.384 227.277L581.189 227.382C573.582 227.573 565.975 227.764 558.367 227.942C557.73 227.957 557.092 227.962 556.444 227.962C556.444 227.962 553.539 227.947 552.896 227.947H550.514L552.395 231.878C552.865 232.863 553.296 233.767 553.732 234.669C556.829 241.068 559.925 247.466 563.026 253.863C564.065 256.008 564.393 258.273 564 260.595C563.193 265.36 559.38 269.03 554.514 269.728C554.022 269.798 553.519 269.834 553.021 269.834Z" fill="black"/>
<path d="M609.963 132.309C616.159 132.309 621.292 135.098 625.219 140.598C629.963 147.242 634.581 154.173 639.048 160.876C640.516 163.08 641.985 165.284 643.46 167.482C646.447 171.932 645.755 177.086 641.7 180.613C640.079 182.022 637.924 182.799 635.633 182.799C632.954 182.799 630.51 181.735 628.927 179.88C627.363 178.047 626.009 176.009 624.575 173.851C624.106 173.146 623.638 172.441 623.162 171.744C621.199 168.866 619.246 165.981 617.293 163.096C615.181 159.977 613.069 156.858 610.946 153.749C610.249 152.728 608.916 152.042 607.629 152.042C607.374 152.042 607.123 152.069 606.881 152.121C603.288 152.9 599.646 153.72 596.125 154.513L593.093 155.195C592.449 155.34 591.803 155.479 591.118 155.627L590.077 155.853L586.163 156.705L588.082 160.221L588.299 160.624C588.447 160.9 588.562 161.112 588.685 161.319C589.269 162.295 589.854 163.271 590.439 164.246C591.389 165.831 592.34 167.415 593.284 169.004C594.588 171.197 595.888 173.392 597.189 175.588C598.936 178.536 600.683 181.484 602.437 184.428C604.132 187.272 605.836 190.11 607.54 192.949C610.886 198.522 614.346 204.284 617.67 209.987C619.413 212.978 619.42 216.659 617.688 219.835C615.96 223.002 612.869 224.984 609.42 225.137C603.841 225.385 598.144 225.503 592.636 225.616C590.205 225.666 587.775 225.716 585.346 225.777L581.216 225.881C573.588 226.072 565.961 226.264 558.333 226.442C557.706 226.457 557.078 226.462 556.44 226.462C555.894 226.462 555.341 226.458 554.774 226.455C554.166 226.451 553.542 226.448 552.896 226.448H548.135L550.19 230.742L550.966 232.366C551.466 233.415 551.922 234.37 552.382 235.322C555.478 241.722 558.575 248.12 561.675 254.517C562.576 256.376 562.861 258.337 562.521 260.344C561.823 264.464 558.52 267.638 554.302 268.243C553.879 268.303 553.448 268.334 553.021 268.334C549.399 268.334 546.009 266.163 544.384 262.804C541.396 256.626 538.415 250.444 535.434 244.263C533.597 240.455 531.761 236.647 529.923 232.84C528.319 229.517 527.692 226.317 528.006 223.058C528.825 214.564 536.09 207.772 544.546 207.595C551.16 207.457 557.888 207.347 564.396 207.241L570.216 207.146C570.684 207.138 571.152 207.136 571.63 207.136C572.039 207.136 572.455 207.137 572.884 207.139C573.352 207.141 573.835 207.143 574.342 207.143H579.458L576.961 202.679L576.713 202.234C576.582 201.996 576.498 201.845 576.41 201.698L572.138 194.539C569.742 190.525 567.345 186.511 564.952 182.496C563.606 180.239 562.263 177.98 560.919 175.721C558.768 172.105 556.617 168.488 554.456 164.877C552.939 162.34 552.165 160.098 552.02 157.82C551.607 151.3 555.516 145.414 561.527 143.508C567.057 141.754 573.08 140.102 580.481 138.309C590.24 135.945 598.151 134.186 605.379 132.774C606.958 132.465 608.5 132.309 609.963 132.309ZM609.964 129.309C608.302 129.309 606.582 129.482 604.803 129.829C596.418 131.468 588.08 133.382 579.775 135.393C573.342 136.952 566.927 138.648 560.62 140.648C553.16 143.014 548.53 150.195 549.026 158.01C549.219 161.055 550.325 163.815 551.882 166.417C555.39 172.282 558.875 178.161 562.375 184.032C566.192 190.435 570.014 196.834 573.833 203.235C573.952 203.435 574.061 203.641 574.342 204.143C573.369 204.143 572.483 204.136 571.63 204.136C571.135 204.136 570.651 204.138 570.166 204.146C561.605 204.289 553.043 204.416 544.483 204.596C534.488 204.805 525.979 212.819 525.02 222.77C524.631 226.806 525.484 230.546 527.221 234.144C532.043 244.132 536.854 254.125 541.683 264.11C543.837 268.563 548.302 271.334 553.021 271.334C553.588 271.334 554.157 271.294 554.727 271.212C560.193 270.429 564.556 266.293 565.479 260.845C565.924 258.22 565.553 255.639 564.375 253.209C561.275 246.812 558.178 240.414 555.083 234.016C554.398 232.6 553.725 231.179 552.896 229.447C554.145 229.447 555.309 229.461 556.44 229.461C557.102 229.461 557.753 229.457 558.403 229.441C567.409 229.231 576.415 229.002 585.421 228.776C593.465 228.575 601.515 228.491 609.553 228.134C619.165 227.707 625.103 216.783 620.262 208.476C615.263 199.899 610.097 191.42 605.014 182.892C601.954 177.757 598.917 172.609 595.863 167.47C594.336 164.902 592.793 162.344 591.261 159.78C591.104 159.517 590.966 159.243 590.716 158.784C591.813 158.545 592.783 158.339 593.75 158.122C598.338 157.092 602.922 156.049 607.517 155.053C607.551 155.046 607.589 155.042 607.629 155.042C607.917 155.042 608.322 155.227 608.467 155.439C612.556 161.426 616.598 167.445 620.684 173.434C622.619 176.27 624.427 179.227 626.646 181.827C628.901 184.47 632.257 185.798 635.634 185.798C638.522 185.798 641.425 184.827 643.668 182.876C648.875 178.349 649.817 171.569 645.951 165.81C639.9 156.794 633.968 147.689 627.661 138.854C623.139 132.521 617.116 129.309 609.964 129.309Z" fill="black"/>
<path d="M547.375 136.703C541.348 136.702 535.653 134.32 531.34 129.992C527.1 125.739 524.775 120.161 524.793 114.286C524.838 100.107 536.202 91.5735 547.162 91.5139L547.291 91.5134C559.879 91.5134 569.857 101.349 570.006 113.906C570.077 119.933 567.779 125.626 563.533 129.936C559.251 134.282 553.536 136.685 547.442 136.703H547.375Z" fill="black"/>
<path d="M547.292 93.0135C559.048 93.0135 568.367 102.198 568.506 113.923C568.573 119.548 566.427 124.861 562.464 128.883C558.465 132.942 553.129 135.186 547.438 135.203H547.376C541.75 135.203 536.433 132.977 532.403 128.935C528.446 124.965 526.276 119.764 526.293 114.29C526.335 101.043 536.94 93.0692 547.17 93.0138L547.292 93.0135ZM547.292 90.0135C547.245 90.0135 547.2 90.0136 547.153 90.0139C534.905 90.0803 523.339 99.7545 523.293 114.281C523.252 127.397 534.223 138.203 547.376 138.203C547.4 138.203 547.422 138.203 547.446 138.203C560.786 138.164 571.665 127.279 571.506 113.887C571.345 100.312 560.518 90.0135 547.292 90.0135Z" fill="black"/>
<path d="M526.098 181.445C519.545 181.445 513.389 178.34 509.63 173.139C508.419 171.463 507.213 169.783 506.008 168.103L503.858 165.107L499.963 159.704C497.123 155.767 494.283 151.83 491.468 147.875C488.285 143.402 488.378 137.776 491.699 133.874C493.875 131.316 496.872 129.907 500.136 129.907C503.84 129.907 507.254 131.718 509.504 134.876C512.201 138.66 514.905 142.438 517.61 146.215C520.164 149.785 522.72 153.355 525.268 156.929C525.502 157.257 526.123 158.13 527.262 158.13C527.666 158.13 528.074 158.019 528.506 157.791C531.431 156.249 534.375 154.742 537.319 153.236L538.19 152.79C540.599 151.556 543.012 150.328 545.504 149.059C544.267 151.733 543.168 154.643 542.96 157.876C542.685 162.184 543.876 166.327 546.602 170.541C547.066 171.258 547.496 171.992 547.946 172.765C546.767 173.366 545.59 173.971 544.414 174.575C541.252 176.198 537.983 177.876 534.745 179.462C532.057 180.777 529.148 181.445 526.098 181.445Z" fill="black"/>
<path d="M500.136 131.407C503.349 131.407 506.318 132.989 508.283 135.746C510.973 139.522 513.672 143.292 516.371 147.062C518.932 150.64 521.493 154.217 524.046 157.8C524.912 159.015 525.994 159.63 527.262 159.63C527.907 159.63 528.561 159.458 529.206 159.118C532.111 157.586 535.091 156.061 537.974 154.586L538.874 154.125C540.113 153.491 541.353 152.857 542.605 152.219C542.02 153.96 541.591 155.805 541.464 157.781C541.166 162.42 542.435 166.86 545.342 171.355C545.512 171.618 545.678 171.884 545.843 172.156C545.137 172.517 544.431 172.879 543.726 173.242C540.572 174.861 537.31 176.536 534.084 178.115C531.604 179.329 528.917 179.945 526.099 179.945C520.026 179.945 514.324 177.072 510.846 172.261C509.642 170.596 508.445 168.926 507.247 167.256L505.075 164.231C503.776 162.426 502.475 160.621 501.173 158.817C498.384 154.95 495.5 150.952 492.691 147.005C489.87 143.042 489.929 138.269 492.842 134.845C494.729 132.628 497.319 131.406 500.136 131.407ZM500.137 128.407C496.625 128.406 493.122 129.886 490.557 132.901C486.782 137.338 486.63 143.663 490.247 148.745C494.35 154.51 498.507 160.238 502.64 165.983C504.566 168.661 506.482 171.345 508.415 174.018C512.559 179.751 519.286 182.945 526.099 182.945C529.265 182.945 532.451 182.255 535.403 180.809C540.028 178.546 544.59 176.156 549.179 173.82C549.421 173.697 549.646 173.538 550.008 173.317C549.287 172.107 548.614 170.891 547.861 169.726C545.546 166.145 544.179 162.322 544.458 157.973C544.668 154.701 545.863 151.771 547.247 148.879C547.703 147.929 548.135 146.968 548.699 145.749C544.786 147.743 541.143 149.593 537.507 151.455C534.267 153.113 531.026 154.767 527.807 156.464C527.59 156.578 527.414 156.63 527.262 156.63C526.949 156.63 526.739 156.41 526.489 156.059C521.245 148.701 515.969 141.365 510.726 134.005C508.086 130.3 504.106 128.407 500.137 128.407Z" fill="black"/>
<path d="M648.634 288.403C646.194 288.403 643.806 287.601 641.909 286.146C640.324 284.93 638.746 283.629 637.221 282.369L629.076 275.681C623.926 271.453 618.777 267.224 613.608 263.02C612.484 262.105 611.798 261.358 611.621 260.245C611.508 259.535 611.298 258.89 611.095 258.265L610.933 257.76L608.498 249.896C607.189 245.668 605.879 241.439 604.575 237.209C604.312 236.357 604.069 235.499 603.808 234.574C604.047 234.575 604.285 234.577 604.522 234.578C605.387 234.584 606.24 234.589 607.085 234.589C608.128 234.589 609.16 234.581 610.193 234.555C616.01 234.407 620.531 231.741 623.629 226.631C623.834 226.295 624.036 225.957 624.241 225.615L625.235 228.864C627.022 234.696 628.808 240.527 630.571 246.366C631.121 248.192 631.952 249.477 633.266 250.532C639.814 255.795 646.423 261.21 652.816 266.447L655.552 268.689C657.782 270.517 659.075 272.745 659.504 275.5C660.23 280.169 658.238 284.426 654.177 286.885C652.538 287.878 650.621 288.403 648.634 288.403Z" fill="black"/>
<path d="M623.749 229.132C625.523 234.923 627.356 240.908 629.134 246.8C629.534 248.124 630.3 250.073 632.326 251.701C638.913 256.995 645.565 262.446 651.998 267.717L654.601 269.849C656.534 271.433 657.653 273.356 658.022 275.73C658.651 279.777 656.923 283.468 653.4 285.602C651.995 286.453 650.347 286.903 648.633 286.903C646.522 286.903 644.458 286.212 642.821 284.956C641.264 283.762 639.705 282.475 638.196 281.229C637.708 280.826 637.219 280.423 636.729 280.021C634.486 278.183 632.245 276.342 630.003 274.502C624.947 270.35 619.719 266.057 614.555 261.856C613.436 260.946 613.181 260.505 613.102 260.009C612.971 259.185 612.733 258.453 612.523 257.807C612.47 257.644 612.417 257.481 612.367 257.318L609.934 249.46C608.623 245.23 607.313 240.999 606.008 236.767C605.939 236.541 605.87 236.314 605.803 236.086C606.228 236.088 606.651 236.089 607.073 236.089C608.286 236.089 609.289 236.078 610.231 236.054C615.812 235.913 620.447 233.529 623.749 229.132ZM624.657 221.987C623.816 223.394 623.09 224.628 622.347 225.853C619.571 230.431 615.538 232.918 610.155 233.055C609.131 233.081 608.107 233.089 607.073 233.089C605.367 233.089 603.633 233.067 601.824 233.067C602.319 234.795 602.704 236.231 603.142 237.651C605.254 244.504 607.382 251.352 609.501 258.204C609.734 258.957 610.017 259.707 610.14 260.48C610.402 262.132 611.424 263.176 612.662 264.183C620.071 270.21 627.441 276.287 634.828 282.342C636.874 284.019 638.897 285.727 640.995 287.336C643.22 289.042 645.934 289.903 648.634 289.903C650.842 289.903 653.04 289.328 654.954 288.168C659.55 285.385 661.798 280.488 660.987 275.269C660.491 272.08 658.958 269.54 656.502 267.528C649.086 261.454 641.678 255.368 634.206 249.363C633.026 248.415 632.422 247.307 632.006 245.932C629.686 238.247 627.326 230.573 624.978 222.896C624.908 222.668 624.819 222.445 624.657 221.987Z" fill="black"/>
<path d="M740.537 182.624C740.054 182.624 739.546 182.592 739.03 182.527C736.965 182.268 729.402 180.013 720.644 177.401C711.749 174.749 700.678 171.449 690.422 168.738C676.952 165.183 667.801 163.412 662.453 163.324C661.309 163.187 644.861 161.053 642.932 151.688C642.212 148.221 643.876 144.566 647.073 142.592C653.785 138.455 671.326 128.124 689.185 121.579C699.756 117.706 708.815 115.742 716.11 115.742C723.504 115.742 729.11 117.782 732.771 121.805C745.832 136.162 750.166 160.623 747.697 177.365C747.429 179.184 745.587 182.624 740.537 182.624Z" fill="black"/>
<path d="M716.111 114.242V117.242C723.064 117.242 728.297 119.117 731.661 122.814C744.41 136.828 748.631 160.754 746.212 177.147C746.01 178.523 744.563 181.124 740.538 181.124C740.116 181.124 739.67 181.096 739.22 181.04C737.275 180.795 729.403 178.448 721.069 175.963C712.165 173.309 701.083 170.005 690.804 167.288C677.274 163.717 668.028 161.929 662.546 161.825C657.865 161.291 645.854 158.436 644.4 151.382C643.809 148.532 645.199 145.512 647.858 143.87C654.533 139.756 671.972 129.485 689.702 122.989C700.105 119.176 708.99 117.242 716.11 117.242L716.111 114.242ZM716.11 114.242C707.802 114.242 698.167 116.691 688.669 120.172C670.882 126.69 653.57 136.825 646.284 141.316C642.651 143.56 640.596 147.814 641.463 151.991C643.7 162.85 662.356 164.822 662.356 164.822C668.317 164.903 678.736 167.205 690.038 170.188C710.808 175.679 734.528 183.472 738.845 184.016C739.437 184.09 740.001 184.124 740.538 184.124C746.062 184.124 748.756 180.462 749.18 177.584C751.909 159.093 746.637 134.818 733.881 120.795C729.617 116.111 723.371 114.242 716.11 114.242Z" fill="black"/>
<path d="M721.314 240.091C720.262 240.091 719.146 239.765 717.996 239.123C716.636 238.365 711.946 234.618 706.516 230.279C699.948 225.032 691.773 218.501 684.412 213.142C677.731 208.285 672.9 205.252 669.649 203.873C668.789 203.398 658.19 197.373 659.436 190.541C659.897 188.048 661.987 186.074 664.635 185.631C668.832 184.922 675.395 183.951 682.833 183.345C687.495 182.963 691.946 182.77 696.059 182.77C709.611 182.77 726.557 184.917 730.335 195.146C735.385 208.833 731.502 227.112 725.055 238.094C724.516 239.016 723.213 240.091 721.314 240.091Z" fill="black"/>
<path d="M696.061 181.27V184.27C709.134 184.27 725.449 186.247 728.927 195.665C733.817 208.916 730.03 226.657 723.759 237.338C723.487 237.804 722.666 238.591 721.313 238.591C720.521 238.591 719.652 238.329 718.724 237.811C717.475 237.115 712.608 233.227 707.456 229.11C700.875 223.852 692.684 217.308 685.293 211.929C678.565 207.037 673.657 203.958 670.299 202.52C667.458 200.961 660.019 195.701 660.911 190.817C661.257 188.939 662.853 187.45 664.887 187.11C669.052 186.407 675.567 185.442 682.955 184.84C687.577 184.462 691.985 184.27 696.059 184.27L696.061 181.27ZM696.06 181.27C691.492 181.27 686.941 181.504 682.711 181.85C674.88 182.488 668.138 183.518 664.388 184.152C661.196 184.685 658.547 187.097 657.961 190.272C656.454 198.534 668.996 205.226 668.996 205.226C672.488 206.691 677.746 210.151 683.529 214.355C697.322 224.395 714.131 238.687 717.266 240.432C718.743 241.258 720.106 241.591 721.313 241.591C723.739 241.591 725.534 240.246 726.349 238.853C733.515 226.646 736.712 208.096 731.742 194.626C727.838 184.057 711.835 181.27 696.06 181.27Z" fill="black"/>
<path d="M703.415 284.901C702.346 284.901 701.287 284.337 700.353 283.27C699.594 282.408 697.022 278.251 695.485 275.768L694.408 274.026C688.18 263.959 679.66 250.185 674.678 245.588C672.834 243.532 668.669 237.563 670.821 233.843C671.566 232.548 673.019 231.745 674.614 231.745C674.886 231.745 675.161 231.769 675.428 231.817C677.558 232.191 681.903 233.013 687.092 234.328C699.27 237.409 719.717 244.207 719.836 255.11C719.953 266.112 712.553 278.123 705.184 284.301C704.737 284.677 704.076 284.901 703.415 284.901Z" fill="black"/>
<path d="M674.614 233.245C674.799 233.245 674.985 233.261 675.171 233.294C677.278 233.664 681.579 234.479 686.725 235.782C706.735 240.845 718.257 247.896 718.336 255.125C718.447 265.663 711.319 277.2 704.219 283.153C704.109 283.245 703.816 283.401 703.415 283.401C702.626 283.401 701.928 282.793 701.475 282.275C700.806 281.515 698.073 277.1 696.759 274.977L695.682 273.236C689.433 263.134 680.893 249.327 675.752 244.538C673.845 242.383 670.566 237.281 672.122 234.589C672.6 233.76 673.554 233.245 674.614 233.245ZM674.614 230.245C672.553 230.245 670.567 231.276 669.522 233.093C666.321 238.629 673.612 246.645 673.612 246.645C678.729 251.322 688.228 266.9 694.209 276.557C696.634 280.476 698.484 283.418 699.224 284.258C700.604 285.835 702.105 286.401 703.415 286.401C704.527 286.401 705.501 285.993 706.148 285.45C714.412 278.523 721.451 266.038 721.336 255.094C721.21 243.499 701.586 236.448 687.461 232.874C682.498 231.617 678.218 230.783 675.69 230.339C675.332 230.276 674.972 230.245 674.614 230.245Z" fill="black"/>
<path d="M749.303 177.464C748.848 180.616 745.662 184.72 739.004 183.903C735.41 183.466 718.34 178.039 700.743 173.113C698.06 172.362 698.056 168.539 700.745 167.809C724.258 161.429 718.67 143.209 715.097 135.025C712.231 128.46 705.68 124.46 693.255 124.422C690.17 124.412 689.47 120.053 692.392 119.062C708.942 113.451 725.338 111.535 733.855 120.845C746.631 134.802 751.958 159.006 749.303 177.464Z" fill="url(#paint1_linear_318_59)"/>
<path d="M725.764 238.701C724.508 240.732 721.086 242.594 716.763 240.041C715.312 239.19 710.874 235.466 705.181 230.696C704.382 230.027 705.025 228.761 706.045 228.982C723.683 232.805 723.063 195.538 696.149 183.071C695.18 182.622 695.508 181.17 696.576 181.19C712.335 181.486 728.435 184.539 732.093 195.196C736.695 208.605 733.113 226.817 725.764 238.701Z" fill="url(#paint2_linear_318_59)"/>
<path d="M721.053 254.612C721.373 265.661 714.487 278.387 706.262 285.526C706.258 285.529 706.244 285.537 706.22 285.548C704.758 286.257 703.327 284.513 704.277 283.195C704.846 282.406 705.424 281.527 705.899 280.52C710.243 271.309 714.504 260.044 704.27 241.436C703.543 240.115 704.928 238.611 706.297 239.24C714.436 242.979 720.866 248.014 721.053 254.612Z" fill="url(#paint3_linear_318_59)"/>
<path d="M525.668 329.177V311.586H519.525V307.918H536.276V311.586H530.118V329.177H525.668ZM545.484 306.356L547.871 301.922H551.436L547.959 306.356H545.484ZM537.455 311.734L540.991 307.152H544.615L548.18 311.734H545.042L542.788 308.831L540.593 311.734H537.455ZM542.817 329.501C538.015 329.501 534.994 326.422 534.994 321.28V321.251C534.994 316.168 538.088 313.06 542.803 313.06C547.532 313.06 550.641 316.139 550.641 321.251V321.28C550.641 326.437 547.591 329.501 542.817 329.501ZM542.832 326.128C544.924 326.128 546.265 324.36 546.265 321.28V321.251C546.265 318.201 544.895 316.433 542.803 316.433C540.725 316.433 539.37 318.201 539.37 321.251V321.28C539.37 324.374 540.711 326.128 542.832 326.128ZM560.084 329.501C555.267 329.501 552.291 326.363 552.291 321.266V321.251C552.291 316.198 555.311 313.06 560.04 313.06C564.327 313.06 567.053 315.697 567.215 319.115V319.218H563.222L563.193 319.085C562.928 317.583 561.882 316.433 560.099 316.433C557.992 316.433 556.666 318.245 556.666 321.266V321.28C556.666 324.374 557.992 326.128 560.114 326.128C561.838 326.128 562.913 325.067 563.208 323.476L563.222 323.343H567.23V323.431C567.023 326.879 564.298 329.501 560.084 329.501ZM581.138 329.501C577.16 329.501 574.714 326.407 574.714 321.28V321.266C574.714 316.124 577.16 313.06 581.138 313.06C583.377 313.06 585.145 314.209 585.999 316.124H586.088V312.058H583.436V309.745H586.088V307.918H590.39V309.745H591.863V312.058H590.39V329.177H586.088V326.481H585.999C585.16 328.352 583.421 329.501 581.138 329.501ZM582.581 325.936C584.673 325.936 586.102 324.139 586.102 321.28V321.266C586.102 318.422 584.659 316.625 582.581 316.625C580.445 316.625 579.09 318.378 579.09 321.266V321.28C579.09 324.153 580.43 325.936 582.581 325.936ZM595.679 311.616L599.2 306.577H602.736L606.286 311.616H603.178L600.953 308.537L598.787 311.616H595.679ZM600.983 329.501C596.18 329.501 593.159 326.422 593.159 321.28V321.251C593.159 316.168 596.253 313.06 600.968 313.06C605.697 313.06 608.806 316.139 608.806 321.251V321.28C608.806 326.437 605.756 329.501 600.983 329.501ZM600.997 326.128C603.089 326.128 604.43 324.36 604.43 321.28V321.251C604.43 318.201 603.06 316.433 600.968 316.433C598.891 316.433 597.535 318.201 597.535 321.251V321.28C597.535 324.374 598.876 326.128 600.997 326.128ZM600.983 335.674C599.701 335.674 598.684 334.658 598.684 333.435C598.684 332.212 599.701 331.196 600.983 331.196C602.279 331.196 603.281 332.212 603.281 333.435C603.281 334.658 602.279 335.674 600.983 335.674ZM623.288 329.501C619.782 329.501 618.132 328.146 618.132 324.757V316.625H615.936V313.384H618.132V309.524H622.478V313.384H625.365V316.625H622.478V324.286C622.478 325.759 623.141 326.26 624.437 326.26C624.82 326.26 625.1 326.216 625.365 326.186V329.339C624.879 329.413 624.187 329.501 623.288 329.501ZM636.032 311.616H633.144L635.826 306.577H639.641L636.032 311.616ZM633.115 329.501C629.638 329.501 627.664 327.277 627.664 323.579V313.384H631.966V322.68C631.966 324.743 632.938 325.936 634.868 325.936C636.798 325.936 638.021 324.522 638.021 322.459V313.384C641.247 312.986 641.969 312.058 641.94 308.949H645.255C645.255 312.176 644.518 313.811 642.323 314.724V329.177H638.021V326.57H637.932C637.122 328.382 635.502 329.501 633.115 329.501ZM652.547 329.501C647.73 329.501 644.754 326.363 644.754 321.266V321.251C644.754 316.198 647.774 313.06 652.503 313.06C656.79 313.06 659.516 315.697 659.678 319.115V319.218H655.686L655.656 319.085C655.391 317.583 654.345 316.433 652.562 316.433C650.455 316.433 649.129 318.245 649.129 321.266V321.28C649.129 324.374 650.455 326.128 652.577 326.128C654.301 326.128 655.376 325.067 655.671 323.476L655.686 323.343H659.693V323.431C659.487 326.879 656.761 329.501 652.547 329.501ZM674.028 329.501C670.521 329.501 668.871 328.146 668.871 324.757V316.625H666.676V313.384H668.871V309.524H673.218V313.384H676.105V316.625H673.218V324.286C673.218 325.759 673.881 326.26 675.177 326.26C675.56 326.26 675.84 326.216 676.105 326.186V329.339C675.619 329.413 674.927 329.501 674.028 329.501ZM678.58 329.177V307.918H682.882V316.109H682.971C683.781 314.15 685.446 313.06 687.818 313.06C691.236 313.06 693.357 315.446 693.357 319.262V329.177H689.055V320.146C689.055 317.936 687.965 316.625 686.006 316.625C684.105 316.625 682.882 318.069 682.882 320.131V329.177H678.58ZM697.32 311.616L693.711 306.577H697.527L700.208 311.616H697.32ZM696.215 329.177V313.384H700.517V329.177H696.215Z" fill="#231F20"/>
<path d="M1007.59 99.7152C1009.3 95.4295 1012.16 91.1439 1014.45 90.001C1018.45 88.001 1022.73 87.7153 1026.45 89.4296C1035.87 93.7153 1037.87 104.858 1036.16 116.001C1035.02 122.572 1034.45 128.858 1034.45 135.144C1034.45 152.286 1037.59 167.715 1056.44 167.715C1062.73 167.715 1069.02 167.429 1075.3 167.715C1080.73 168 1083.87 175.143 1081.87 180.286C1079.3 186.857 1075.3 191.429 1068.16 196C1059.02 201.714 1049.59 204.572 1040.16 204.857C1031.3 205.143 1023.3 201.429 1016.45 195.143C1011.87 191.143 1007.87 186 1004.16 180.572C996.16 186.286 988.731 191.714 981.303 196.857C970.16 204.572 955.874 213.143 942.446 213.143C935.875 213.143 930.446 209.714 927.303 204C921.875 194 920.446 183.429 921.018 173.429C922.446 149.143 932.446 126.286 950.446 107.144C959.874 97.1438 972.731 90.5724 985.303 90.5724C994.446 90.5724 1001.59 93.4296 1007.59 99.7152ZM999.588 139.715C997.874 137.143 995.874 134.001 991.588 130.858C988.16 128.286 984.446 126.858 981.017 126.858C974.731 126.572 968.731 130.572 964.446 136.858C960.446 142.572 957.017 149.143 954.16 155.715C952.16 160.858 951.589 168.286 955.303 171.715C958.446 174.857 964.16 173.429 971.303 169.715C980.731 164.572 992.16 151.143 999.588 139.715Z" fill="#231F20"/>
<path d="M1007.59 99.7152L1006.5 100.751L1008.11 102.439L1008.98 100.272L1007.59 99.7152ZM1014.45 90.001L1013.77 88.6594L1014.45 90.001ZM1026.45 89.4296L1025.82 90.7916L1025.82 90.7952L1026.45 89.4296ZM1036.16 116.001L1037.64 116.258L1037.64 116.243L1037.64 116.229L1036.16 116.001ZM1075.3 167.715L1075.38 166.217L1075.37 166.216L1075.3 167.715ZM1081.87 180.286L1083.27 180.833L1083.27 180.83L1081.87 180.286ZM1068.16 196L1068.95 197.272L1068.96 197.268L1068.97 197.264L1068.16 196ZM1040.16 204.857L1040.11 203.358L1040.11 203.358L1040.16 204.857ZM1016.45 195.143L1017.46 194.037L1017.45 194.026L1017.43 194.014L1016.45 195.143ZM1004.16 180.572L1005.4 179.725L1004.53 178.461L1003.29 179.351L1004.16 180.572ZM981.303 196.857L982.157 198.091L981.303 196.857ZM927.303 204L925.985 204.716L925.989 204.723L927.303 204ZM921.018 173.429L919.52 173.341L919.52 173.343L921.018 173.429ZM950.446 107.144L949.354 106.115L949.353 106.116L950.446 107.144ZM999.588 139.715L1000.85 140.532L1001.38 139.704L1000.84 138.883L999.588 139.715ZM991.588 130.858L990.688 132.058L990.695 132.063L990.701 132.067L991.588 130.858ZM981.017 126.858L980.949 128.356L980.983 128.358H981.017V126.858ZM964.446 136.858L965.675 137.718L965.68 137.71L965.685 137.703L964.446 136.858ZM954.16 155.715L952.785 155.117L952.773 155.144L952.762 155.171L954.16 155.715ZM955.303 171.715L956.364 170.654L956.342 170.633L956.32 170.612L955.303 171.715ZM971.303 169.715L971.995 171.045L972.008 171.039L972.021 171.031L971.303 169.715ZM1007.59 99.7152L1008.98 100.272C1009.8 98.2268 1010.89 96.1851 1012.03 94.5347C1013.22 92.8297 1014.33 91.738 1015.12 91.3427L1014.45 90.001L1013.77 88.6594C1012.28 89.407 1010.82 91.0295 1009.57 92.8244C1008.29 94.674 1007.09 96.9179 1006.2 99.1581L1007.59 99.7152ZM1014.45 90.001L1015.12 91.3427C1018.78 89.5084 1022.59 89.3013 1025.82 90.7915L1026.45 89.4296L1027.07 88.0677C1022.87 86.1294 1018.11 86.4937 1013.77 88.6594L1014.45 90.001ZM1026.45 89.4296L1025.82 90.7952C1034.26 94.6278 1036.37 104.753 1034.68 115.773L1036.16 116.001L1037.64 116.229C1039.38 104.963 1037.49 92.8028 1027.07 88.064L1026.45 89.4296ZM1036.16 116.001L1034.68 115.744C1033.53 122.393 1032.95 128.765 1032.95 135.144H1034.45H1035.95C1035.95 128.951 1036.51 122.751 1037.64 116.258L1036.16 116.001ZM1034.45 135.144H1032.95C1032.95 143.739 1033.72 152.205 1037.04 158.554C1038.73 161.763 1041.07 164.455 1044.3 166.333C1047.52 168.207 1051.52 169.215 1056.44 169.215V167.715V166.215C1051.94 166.215 1048.48 165.294 1045.81 163.74C1043.14 162.189 1041.16 159.952 1039.7 157.162C1036.74 151.51 1035.95 143.69 1035.95 135.144H1034.45ZM1056.44 167.715V169.215C1062.83 169.215 1068.99 168.929 1075.23 169.213L1075.3 167.715L1075.37 166.216C1069.04 165.929 1062.63 166.215 1056.44 166.215V167.715ZM1075.3 167.715L1075.22 169.213C1077.24 169.319 1078.97 170.703 1080.03 172.842C1081.08 174.983 1081.3 177.615 1080.48 179.742L1081.87 180.286L1083.27 180.83C1084.44 177.814 1084.09 174.303 1082.72 171.516C1081.34 168.726 1078.8 166.396 1075.38 166.217L1075.3 167.715ZM1081.87 180.286L1080.48 179.739C1078.04 185.959 1074.28 190.3 1067.35 194.737L1068.16 196L1068.97 197.264C1076.32 192.558 1080.56 187.756 1083.27 180.833L1081.87 180.286ZM1068.16 196L1067.36 194.728C1058.43 200.311 1049.26 203.081 1040.11 203.358L1040.16 204.857L1040.2 206.357C1049.92 206.062 1059.6 203.117 1068.95 197.272L1068.16 196ZM1040.16 204.857L1040.11 203.358C1031.74 203.628 1024.1 200.128 1017.46 194.037L1016.45 195.143L1015.43 196.249C1022.5 202.729 1030.87 206.658 1040.21 206.356L1040.16 204.857ZM1016.45 195.143L1017.43 194.014C1013 190.138 1009.09 185.117 1005.4 179.725L1004.16 180.572L1002.92 181.419C1006.66 186.884 1010.74 192.148 1015.46 196.272L1016.45 195.143ZM1004.16 180.572L1003.29 179.351C995.27 185.078 987.866 190.489 980.449 195.624L981.303 196.857L982.157 198.091C989.597 192.94 997.05 187.494 1005.03 181.792L1004.16 180.572ZM981.303 196.857L980.449 195.624C974.903 199.464 968.626 203.48 962.096 206.534C955.557 209.593 948.855 211.643 942.446 211.643V213.143V214.643C949.465 214.643 956.621 212.407 963.367 209.252C970.122 206.092 976.56 201.965 982.157 198.091L981.303 196.857ZM942.446 213.143V211.643C936.455 211.643 931.513 208.542 928.618 203.277L927.303 204L925.989 204.723C929.379 210.886 935.294 214.643 942.446 214.643V213.143ZM927.303 204L928.621 203.284C923.358 193.589 921.955 183.312 922.515 173.514L921.018 173.429L919.52 173.343C918.937 183.545 920.391 194.411 925.985 204.716L927.303 204ZM921.018 173.429L922.515 173.517C923.922 149.603 933.765 127.073 951.539 108.171L950.446 107.144L949.353 106.116C931.127 125.5 920.971 148.684 919.52 173.341L921.018 173.429ZM950.446 107.144L951.537 108.173C960.752 98.3998 973.236 92.0724 985.303 92.0724V90.5724V89.0724C972.227 89.0724 958.997 95.8878 949.354 106.115L950.446 107.144ZM985.303 90.5724V92.0724C994.074 92.0724 1000.81 94.7882 1006.5 100.751L1007.59 99.7152L1008.67 98.6795C1002.37 92.0709 994.817 89.0724 985.303 89.0724V90.5724ZM999.588 139.715L1000.84 138.883C999.117 136.303 996.993 132.961 992.475 129.648L991.588 130.858L990.701 132.067C994.755 135.04 996.632 137.984 998.34 140.547L999.588 139.715ZM991.588 130.858L992.488 129.658C988.874 126.947 984.852 125.358 981.017 125.358V126.858V128.358C984.039 128.358 987.445 129.626 990.688 132.058L991.588 130.858ZM981.017 126.858L981.085 125.359C974.088 125.041 967.657 129.485 963.206 136.013L964.446 136.858L965.685 137.703C969.806 131.659 975.375 128.103 980.949 128.356L981.017 126.858ZM964.446 136.858L963.217 135.998C959.143 141.818 955.668 148.485 952.785 155.117L954.16 155.715L955.536 156.313C958.367 149.802 961.749 143.326 965.675 137.718L964.446 136.858ZM954.16 155.715L952.762 155.171C951.7 157.903 951.012 161.243 951.089 164.394C951.165 167.511 952.001 170.708 954.286 172.817L955.303 171.715L956.32 170.612C954.89 169.292 954.155 167.061 954.088 164.321C954.022 161.615 954.621 158.669 955.558 156.258L954.16 155.715ZM955.303 171.715L954.242 172.775C956.282 174.815 959.062 175.237 962.037 174.768C964.991 174.301 968.376 172.927 971.995 171.045L971.303 169.715L970.611 168.384C967.087 170.216 964.043 171.414 961.569 171.804C959.115 172.192 957.467 171.758 956.364 170.654L955.303 171.715ZM971.303 169.715L972.021 171.031C976.951 168.343 982.297 163.558 987.303 158.084C992.327 152.59 997.091 146.31 1000.85 140.532L999.588 139.715L998.331 138.897C994.657 144.549 989.993 150.697 985.089 156.06C980.166 161.443 975.084 165.944 970.585 168.398L971.303 169.715Z" fill="black"/>
<path d="M910.766 331.609C904.549 331.609 900.645 327.454 900.645 320.603V320.589C900.645 313.738 904.564 309.613 910.766 309.613C915.923 309.613 919.62 312.869 920.033 317.377L920.048 317.509H915.716L915.657 317.259C915.156 314.917 913.418 313.384 910.766 313.384C907.363 313.384 905.182 316.125 905.182 320.574V320.589C905.182 325.067 907.363 327.837 910.766 327.837C913.33 327.837 915.127 326.364 915.702 323.845L915.731 323.697H920.062L920.048 323.859C919.635 328.382 915.908 331.609 910.766 331.609ZM922.552 331.24V309.981H926.854V318.172H926.943C927.753 316.213 929.418 315.123 931.79 315.123C935.208 315.123 937.329 317.509 937.329 321.325V331.24H933.027V322.209C933.027 319.999 931.937 318.688 929.978 318.688C928.077 318.688 926.854 320.132 926.854 322.195V331.24H922.552ZM949.734 308.419L952.121 303.985H955.686L952.209 308.419H949.734ZM941.705 313.797L945.241 309.215H948.865L952.43 313.797H949.292L947.038 310.894L944.843 313.797H941.705ZM944.799 331.491C941.631 331.491 939.495 329.502 939.495 326.718V326.688C939.495 323.815 941.72 322.136 945.639 321.885L949.543 321.649V320.677C949.543 319.277 948.629 318.408 946.95 318.408C945.344 318.408 944.372 319.16 944.165 320.176L944.136 320.309H940.202L940.217 320.132C940.453 317.215 942.957 315.123 947.127 315.123C951.208 315.123 953.845 317.23 953.845 320.412V331.24H949.543V328.883H949.454C948.556 330.504 946.876 331.491 944.799 331.491ZM943.753 326.497C943.753 327.66 944.71 328.353 946.198 328.353C948.128 328.353 949.543 327.115 949.543 325.465V324.331L946.287 324.537C944.622 324.64 943.753 325.347 943.753 326.467V326.497ZM962.905 331.565C959.399 331.565 957.749 330.209 957.749 326.821V318.688H955.554V315.447H957.749V311.587H962.095V315.447H964.983V318.688H962.095V326.349C962.095 327.822 962.758 328.323 964.055 328.323C964.438 328.323 964.718 328.279 964.983 328.25V331.403C964.497 331.476 963.804 331.565 962.905 331.565ZM973.439 331.24V309.981H977.741V331.24H973.439ZM986.021 331.565C982.544 331.565 980.57 329.34 980.57 325.642V315.447H984.872V324.743C984.872 326.806 985.844 327.999 987.774 327.999C989.704 327.999 990.927 326.585 990.927 324.522V315.447C994.154 315.049 994.876 314.121 994.846 311.012H998.161C998.161 314.239 997.424 315.874 995.229 316.788V331.24H990.927V328.633H990.839C990.029 330.445 988.408 331.565 986.021 331.565ZM1005.48 331.565C1000.68 331.565 997.66 328.485 997.66 323.344V323.314C997.66 318.231 1000.75 315.123 1005.47 315.123H1005.48C1009.68 314.887 1010.65 313.959 1010.7 311.012H1014.01C1013.95 314.195 1013.09 315.786 1010.33 316.581C1012.22 317.966 1013.31 320.294 1013.31 323.314V323.344C1013.31 328.5 1010.26 331.565 1005.48 331.565ZM1005.5 328.191C1007.59 328.191 1008.93 326.423 1008.93 323.344V323.314C1008.93 320.265 1007.56 318.497 1005.47 318.497C1003.39 318.497 1002.04 320.265 1002.04 323.314V323.344C1002.04 326.438 1003.38 328.191 1005.5 328.191ZM1005.48 337.738C1004.2 337.738 1003.18 336.721 1003.18 335.498C1003.18 334.275 1004.2 333.259 1005.48 333.259C1006.78 333.259 1007.78 334.275 1007.78 335.498C1007.78 336.721 1006.78 337.738 1005.48 337.738ZM1015.53 331.24V315.447H1019.83V318.04H1019.92C1020.73 316.228 1022.35 315.123 1024.74 315.123C1028.22 315.123 1030.19 317.347 1030.19 321.045V331.24H1025.89V321.929C1025.89 319.867 1024.92 318.688 1022.99 318.688C1021.06 318.688 1019.83 320.102 1019.83 322.165V331.24H1015.53ZM1040.3 336.721C1035.95 336.721 1033.21 334.762 1032.8 332.228L1032.78 332.095H1036.97L1037.01 332.198C1037.35 332.979 1038.5 333.657 1040.3 333.657C1042.52 333.657 1043.7 332.508 1043.7 330.74V328.323H1043.61C1042.79 329.973 1041.02 331.019 1038.74 331.019C1034.79 331.019 1032.34 328.073 1032.34 323.167V323.152C1032.34 318.114 1034.82 315.123 1038.81 315.123C1041.03 315.123 1042.76 316.301 1043.61 318.143H1043.7V315.447H1048V330.798C1048 334.32 1045.04 336.721 1040.3 336.721ZM1040.22 327.867C1042.33 327.867 1043.71 326.099 1043.71 323.27V323.255C1043.71 320.441 1042.32 318.688 1040.22 318.688C1038.09 318.688 1036.72 320.427 1036.72 323.255V323.27C1036.72 326.113 1038.07 327.867 1040.22 327.867ZM1055.83 331.24L1063.25 309.981H1068.48L1075.89 331.24H1071.22L1069.62 326.084H1062.1L1060.5 331.24H1055.83ZM1065.81 314.106L1063.13 322.754H1068.58L1065.9 314.106H1065.81ZM1076.72 331.24L1084.14 309.981H1089.37L1096.78 331.24H1092.11L1090.51 326.084H1082.99L1081.39 331.24H1076.72ZM1086.71 314.106L1084.02 322.754H1089.48L1086.79 314.106H1086.71ZM1097.61 331.24L1105.03 309.981H1110.26L1117.67 331.24H1113L1111.4 326.084H1103.88L1102.28 331.24H1097.61ZM1107.6 314.106L1104.92 322.754H1110.37L1107.68 314.106H1107.6Z" fill="#231F20"/>
<defs>
<radialGradient id="paint0_radial_318_59" cx="0" cy="0" r="1" gradientUnits="userSpaceOnUse" gradientTransform="translate(196.197 213.901) scale(60.013 60.013)">
<stop offset="0.3403" stop-color="#082020"/>
<stop offset="0.5595" stop-color="#07322B"/>
<stop offset="0.998" stop-color="#056049"/>
<stop offset="1" stop-color="#05614A"/>
</radialGradient>
<linearGradient id="paint1_linear_318_59" x1="690.533" y1="149.183" x2="749.968" y2="149.183" gradientUnits="userSpaceOnUse">
<stop stop-color="#00EA80"/>
<stop offset="1" stop-color="#12C6A3"/>
</linearGradient>
<linearGradient id="paint2_linear_318_59" x1="695.573" y1="211.236" x2="734.145" y2="211.236" gradientUnits="userSpaceOnUse">
<stop stop-color="#00EA80"/>
<stop offset="1" stop-color="#12C6A3"/>
</linearGradient>
<linearGradient id="paint3_linear_318_59" x1="703.971" y1="262.402" x2="721.063" y2="262.402" gradientUnits="userSpaceOnUse">
<stop stop-color="#00EA80"/>
<stop offset="1" stop-color="#12C6A3"/>
</linearGradient>
</defs>
</svg>
