<svg width="129" height="108" viewBox="0 0 129 108" fill="none" xmlns="http://www.w3.org/2000/svg">
<g clip-path="url(#clip0_189_620)">
<path d="M107.271 89.0714C105.145 85.8537 99.8268 76.9521 97.1607 74.4538C97.0875 74.3829 97.0143 74.312 96.9481 74.2305C96.4009 73.5962 94.1112 70.74 95.2543 68.6422C95.7527 67.7279 96.7947 67.2637 97.8124 67.4267C99.2308 67.6535 102.737 68.7237 105.713 69.5529C106.274 69.7124 106.807 69.2305 106.717 68.6493C106.717 68.6493 109.665 64.9036 96.0455 56.4556C95.9583 56.4024 95.8642 56.367 95.7771 56.3103C94.9581 55.8071 90.9363 53.1564 91.5637 50.0912C91.8285 48.7765 92.9333 47.8055 94.2402 47.6106C95.1602 47.4759 96.9585 47.2775 98.8928 47.1003C101.05 46.9054 102.273 44.4922 101.186 42.5857L101.151 42.529C100.705 41.7494 99.6281 40.9592 98.7603 40.7714C96.4428 40.2717 94.4423 39.9457 93.0169 39.9102C92.9228 39.9102 92.8287 39.9032 92.7346 39.8925C91.6543 39.7508 85.1058 38.7267 84.2415 34.5558C83.8825 32.8017 84.7225 31.0157 86.221 30.0695C87.0609 29.538 88.225 28.8221 89.626 28.0036C92.7416 26.1857 93.8359 22.1636 92.1003 18.9672C91.142 17.1954 90.0929 15.4732 88.9394 13.8218C85.9248 9.51276 82.2237 6.03644 77.7662 3.32554C75.264 1.80177 71.9427 1.1391 69.0814 0.639447C66.0529 0.114986 62.9721 -0.0728278 59.9018 0.0299382C58.2812 0.0830931 56.6676 0.217752 55.0575 0.423284C48.8541 1.21352 42.9329 2.90384 37.3951 5.83799C32.2024 8.58787 27.4522 12.1847 23.312 16.3875C18.0913 21.6959 13.8082 27.8937 10.3336 34.5026C4.98745 44.6765 1.0075 55.9063 0.153652 67.4693C-0.62352 77.9372 1.4501 89.0076 8.83497 96.7895C12.2434 100.379 16.2756 103.359 20.8062 105.305C32.1466 110.174 45.4875 108.019 56.1239 102.282C56.6885 101.977 57.2705 101.712 57.8665 101.478C64.9028 98.7314 73.9954 100.78 80.6693 103.239C94.5538 108.352 98.6 106.545 105.378 100.124C105.717 99.8051 105.971 99.4118 106.191 99.0007C107.442 96.6548 107.745 93.6746 107.78 90.8042C107.787 90.1876 107.609 89.5817 107.271 89.0714ZM43.0445 95.62C25.9014 95.62 12.0064 81.4915 12.0064 64.0603C12.0064 46.629 25.9014 32.504 43.0445 32.504C60.1875 32.504 74.0825 46.6326 74.0825 64.0603C74.0825 81.488 60.1875 95.62 43.0445 95.62Z" fill="white"/>
<path d="M68.9139 66.3973C68.9139 80.5577 57.6257 92.0356 43.6994 92.0356C29.773 92.0356 18.4849 80.5577 18.4849 66.3973C18.4849 64.7778 18.6312 63.1938 18.917 61.6559C21.3113 64.5546 24.9044 66.3973 28.9192 66.3973C36.1298 66.3973 41.9777 60.451 41.9777 53.1192C41.9777 48.4451 39.6044 44.338 36.0148 41.9673C38.4369 41.1806 41.0194 40.7554 43.6994 40.7554C57.6257 40.7554 68.9139 52.2368 68.9139 66.3973Z" fill="white"/>
<path d="M128.725 45.1495C128.537 46.4748 127.219 48.2006 124.466 47.8569C122.978 47.6726 115.921 45.3905 108.644 43.321C107.535 43.0056 107.532 41.3968 108.644 41.092C118.367 38.4095 116.056 30.7481 114.579 27.3072C113.394 24.5467 110.686 22.8635 105.546 22.8493C104.27 22.8457 103.981 21.0137 105.19 20.5955C112.035 18.2354 118.813 17.431 122.337 21.3468C127.62 27.2151 129.823 37.3925 128.725 45.1531V45.1495Z" fill="white"/>
<path d="M118.991 70.8978C118.472 71.7518 117.057 72.535 115.269 71.4612C114.669 71.1033 112.833 69.537 110.48 67.5313C110.149 67.2514 110.418 66.7163 110.836 66.812C118.13 68.4208 117.872 52.7507 106.744 47.5061C106.343 47.3183 106.479 46.7088 106.922 46.7159C113.439 46.8399 120.096 48.1227 121.608 52.6054C123.511 58.2434 122.03 65.9012 118.991 70.8978Z" fill="white"/>
<path d="M117.043 77.5886C117.175 82.2343 114.328 87.5852 110.926 90.5867C110.926 90.5867 110.919 90.5903 110.909 90.5974C110.303 90.895 109.714 90.1615 110.104 89.6087C110.337 89.2756 110.578 88.907 110.773 88.4853C112.568 84.6121 114.331 79.8742 110.1 72.0534C109.801 71.497 110.372 70.8663 110.94 71.132C114.307 72.7054 116.966 74.821 117.043 77.5957V77.5886Z" fill="white"/>
</g>
<defs>
<clipPath id="clip0_189_620">
<rect width="129" height="108" fill="white"/>
</clipPath>
</defs>
</svg>
