<svg width="310" height="253" viewBox="0 0 310 253" fill="none" xmlns="http://www.w3.org/2000/svg">
<path d="M102.697 223.744C64.989 224.027 32.1976 194.14 29.2289 156.426C25.1944 115.523 57.4901 77.8449 98.9995 76.1759C129.049 74.2995 158.534 92.4949 170.387 120.125C191.816 168.553 156.007 223.879 102.867 223.744H102.697Z" fill="white"/>
<path d="M255.157 209.262C254.149 206.184 252.533 203.306 250.785 200.542C245.878 192.907 240.259 184.576 234.777 177.683C232.119 174.256 228.984 170.042 229.128 165.628C229.223 159.133 235.593 158.626 240.777 159.745C245.181 160.2 258.049 164.166 254.045 155.384C250.927 148.651 245.425 143.711 239.426 139.159C234.226 135.139 227.73 131.691 223.719 126.495C219.478 120.973 220.399 114.433 226.85 112.037C230.614 110.386 235.953 109.464 238.471 106.124C243.027 99.3032 232.768 94.8979 227.327 94.0832C221.935 93.04 216.42 92.5233 211.326 89.6496C206.21 86.9549 201.414 81.0854 203.876 75.1193C206.052 69.7802 212.023 66.8649 215.924 62.3525C221.969 56.1148 221.073 47.2038 217.01 40.104C210.566 28.6614 201.461 18.68 190.729 11.2733C184.549 7.021 177.524 4.12622 170.156 2.51732C135.168 -4.91378 97.301 4.42 69.2076 26.3875C35.2007 52.9023 13.3067 94.5564 3.546 136.007C-2.1467 162.24 -2.1699 191.698 12.3781 215.135C38.3133 254.998 87.2549 261.39 128.322 242.107C153.156 229.471 174.802 235.821 199.761 244.061C209.527 246.887 220.523 249.683 230.462 247.28C246.565 243.205 260.808 226.933 255.203 209.404L255.157 209.262ZM102.697 223.744C64.989 224.027 32.1976 194.14 29.2289 156.426C25.1944 115.523 57.4901 77.8448 98.9995 76.1758C129.049 74.2994 158.534 92.4948 170.387 120.125C191.816 168.553 156.007 223.878 102.867 223.744H102.697Z" fill="#00FF8B"/>
<path d="M255.157 209.262C254.149 206.184 252.533 203.306 250.785 200.542C245.878 192.907 240.259 184.576 234.777 177.683C232.119 174.256 228.984 170.042 229.128 165.628C229.223 159.133 235.593 158.626 240.777 159.745C245.181 160.2 258.049 164.166 254.045 155.384C250.927 148.651 245.425 143.711 239.426 139.159C234.226 135.139 227.73 131.691 223.719 126.495C219.478 120.973 220.399 114.433 226.85 112.037C230.614 110.386 235.953 109.464 238.471 106.124C243.027 99.3032 232.768 94.8979 227.327 94.0832C221.935 93.04 216.42 92.5233 211.326 89.6496C206.21 86.9549 201.414 81.0854 203.876 75.1193C206.052 69.7802 212.023 66.8649 215.924 62.3525C221.969 56.1148 221.073 47.2038 217.01 40.104C210.566 28.6614 201.461 18.68 190.729 11.2733C184.549 7.021 177.524 4.12622 170.156 2.51732C135.168 -4.91378 97.301 4.42 69.2076 26.3875C35.2007 52.9023 13.3067 94.5564 3.546 136.007C-2.1467 162.24 -2.1699 191.698 12.3781 215.135C38.3133 254.998 87.2549 261.39 128.322 242.107C153.156 229.471 174.802 235.821 199.761 244.061C209.527 246.887 220.523 249.683 230.462 247.28C246.565 243.205 260.808 226.933 255.203 209.404L255.157 209.262ZM102.697 223.744C64.989 224.027 32.1976 194.14 29.2289 156.426C25.1944 115.523 57.4901 77.8448 98.9995 76.1758C129.049 74.2994 158.534 92.4948 170.387 120.125C191.816 168.553 156.007 223.878 102.867 223.744H102.697Z" fill="url(#paint0_radial_294_1111)"/>
<mask id="mask0_294_1111" style="mask-type:luminance" maskUnits="userSpaceOnUse" x="0" y="0" width="257" height="253">
<mask id="mask1_294_1111" style="mask-type:luminance" maskUnits="userSpaceOnUse" x="0" y="0" width="257" height="253">
<path d="M255.157 209.262C254.149 206.184 252.533 203.306 250.785 200.542C245.878 192.907 240.259 184.576 234.777 177.683C232.119 174.256 228.984 170.042 229.128 165.628C229.223 159.133 235.593 158.626 240.777 159.745C245.181 160.2 258.049 164.166 254.045 155.384C250.927 148.651 245.425 143.711 239.426 139.159C234.226 135.139 227.73 131.691 223.719 126.495C219.478 120.973 220.399 114.433 226.85 112.037C230.614 110.386 235.953 109.464 238.471 106.124C243.027 99.3032 232.768 94.8979 227.327 94.0832C221.935 93.04 216.42 92.5233 211.326 89.6496C206.21 86.9549 201.414 81.0854 203.876 75.1193C206.052 69.7802 212.023 66.8649 215.924 62.3525C221.969 56.1148 221.073 47.2038 217.01 40.104C210.566 28.6614 201.461 18.68 190.729 11.2733C184.549 7.021 177.524 4.12622 170.156 2.51732C135.168 -4.91378 97.301 4.42 69.2076 26.3875C35.2007 52.9023 13.3067 94.5564 3.546 136.007C-2.1467 162.24 -2.1699 191.698 12.3781 215.135C38.3133 254.998 87.2549 261.39 128.322 242.107C153.156 229.471 174.802 235.821 199.761 244.061C209.527 246.887 220.523 249.683 230.462 247.28C246.565 243.205 260.808 226.933 255.203 209.404L255.157 209.262ZM102.697 223.744C64.989 224.027 32.1976 194.14 29.2289 156.426C25.1944 115.523 57.4901 77.8448 98.9995 76.1758C129.049 74.2994 158.534 92.4948 170.387 120.125C191.816 168.553 156.007 223.878 102.867 223.744H102.697Z" fill="white"/>
</mask>
<g mask="url(#mask1_294_1111)">
<path d="M255.157 209.262C254.149 206.184 252.533 203.306 250.785 200.542C245.878 192.907 240.259 184.576 234.777 177.683C232.119 174.256 228.984 170.042 229.128 165.628C229.223 159.133 235.593 158.626 240.777 159.745C245.181 160.2 258.049 164.166 254.045 155.384C250.927 148.651 245.425 143.711 239.426 139.159C234.226 135.139 227.73 131.691 223.719 126.495C219.478 120.973 220.399 114.433 226.85 112.037C230.614 110.386 235.953 109.464 238.471 106.124C243.027 99.3032 232.768 94.8979 227.327 94.0832C221.935 93.04 216.42 92.5233 211.326 89.6496C206.21 86.9549 201.414 81.0854 203.876 75.1193C206.052 69.7802 212.023 66.8649 215.924 62.3525C221.969 56.1148 221.073 47.2038 217.01 40.104C210.566 28.6614 201.461 18.68 190.729 11.2733C184.549 7.021 177.524 4.12622 170.156 2.51732C135.168 -4.91378 97.301 4.42 69.2076 26.3875C35.2007 52.9023 13.3067 94.5564 3.546 136.007C-2.1467 162.24 -2.1699 191.698 12.3781 215.135C38.3133 254.998 87.2549 261.39 128.322 242.107C153.156 229.471 174.802 235.821 199.761 244.061C209.527 246.887 220.523 249.683 230.462 247.28C246.565 243.205 260.808 226.933 255.203 209.404L255.157 209.262ZM102.697 223.744C64.989 224.027 32.1976 194.14 29.2289 156.426C25.1944 115.523 57.4901 77.8448 98.9995 76.1758C129.049 74.2994 158.534 92.4948 170.387 120.125C191.816 168.553 156.007 223.878 102.867 223.744H102.697Z" fill="white"/>
</g>
</mask>
<g mask="url(#mask0_294_1111)">
<path d="M-2.14577e-05 191.472C20.7442 240.368 80.0129 256.879 111.764 237.405C143.515 217.931 145.526 215.779 170.962 216.59C202.431 217.402 219.329 245.449 259.759 217.508C301.007 189.001 256.446 254.024 256.446 254.024L111.414 264.641L5.32719 244.814C5.32719 244.814 -11.7757 163.715 -2.14577e-05 191.472Z" fill="#1BAB93"/>
<path d="M-2.14577e-05 191.472C20.7442 240.368 80.0129 256.879 111.764 237.405C143.515 217.931 145.526 215.779 170.962 216.59C202.431 217.402 219.329 245.449 259.759 217.508C301.007 189.001 256.446 254.024 256.446 254.024L111.414 264.641L5.32719 244.814C5.32719 244.814 -11.7757 163.715 -2.14577e-05 191.472Z" fill="url(#paint1_linear_294_1111)"/>
<path d="M195.834 10.1378C221.093 43.3521 209.24 55.7888 202.255 64.4674C195.269 73.146 201.757 79.379 204.225 82.6223L222.928 76.7445L243.249 30.8289L199.503 2.23531C199.503 2.23531 181.801 -8.31343 195.834 10.1378Z" fill="url(#paint2_linear_294_1111)"/>
<path d="M239.086 97.7004C239.086 97.7004 240.144 104.792 227.55 107.226C214.955 109.66 221.623 122.466 221.623 122.466L239.108 120.138C239.108 120.138 241.52 105.956 241.732 105.109C241.943 104.262 239.086 97.7004 239.086 97.7004Z" fill="url(#paint3_linear_294_1111)"/>
<path d="M258.454 156.228C258.454 156.228 253.056 162.79 238.768 152.841C224.48 142.892 229.243 167.934 229.243 167.934L252.844 171.363L258.454 156.228Z" fill="url(#paint4_linear_294_1111)"/>
</g>
<path d="M164.318 155.457C164.762 195.278 124.569 224.818 86.6386 212.712C68.3333 207.148 53.4802 192.668 47.4508 174.491C45.1912 167.546 43.8596 159.782 44.5552 152.42C45.3293 145.419 50.6099 149.196 54.9906 151.392C60.5873 154.255 67.2054 155.322 73.4507 154.4C90.99 152.214 103.072 133.957 98.7395 117.015C97.7459 111.723 94.163 106.645 91.3946 102.526C88.5696 98.0264 91.8987 96.5855 96.1662 95.9392C131.469 90.4792 164.919 119.808 164.318 155.287V155.457Z" fill="url(#paint5_radial_294_1111)"/>
<path d="M307.746 105.522C302.107 116.43 289.458 110.483 279.9 108.171C274.822 106.504 261.228 104.197 259.277 99.2283C258.988 96.1679 263.3 94.1325 265.499 92.2537C268.19 90.2942 270.751 88.0435 272.476 85.1807C278.139 75.5766 273.714 60.6881 262.901 56.3042C259.743 54.8847 255.55 53.8234 252.731 52.1306C248.245 49.3023 252.698 47.1005 256.487 45.7629C266.425 42.9686 278.281 41.7623 287.639 46.8638C303.201 55.627 313.331 88.7554 307.807 105.395L307.746 105.522Z" fill="#12C6A3"/>
<path d="M283.767 165.937C279.671 169.249 274.156 168.024 270.064 165.294C267.928 163.807 265.477 162.007 265.448 159.337C265.492 158.837 265.688 158.381 265.986 157.97C267.395 156.087 271.686 154.437 273.051 151.485C276.975 144.664 275 131.98 265.972 121.883C263.588 119.22 260.628 116.658 258.636 114.595C256.397 112.311 255.409 110.66 256.347 109.763C257.071 109.023 259.044 108.769 261.743 108.881C271.676 109.74 284.153 111.919 290.104 120.763C295.416 129.068 294.534 142.171 291.6 151.902C289.965 156.929 288.09 162.522 283.884 165.849L283.767 165.937Z" fill="#12C6A3"/>
<path d="M279.83 180.779C281.215 189.871 273.282 207.619 264.811 211.902C260.826 212.798 265.174 203.991 265.838 201.485C267.695 195.676 268.497 188.99 266.468 180.825C266.03 177.669 261.14 167.062 265.734 166.172C268.007 165.806 272.63 168.468 275.52 171.687C277.812 174.159 279.375 177.265 279.808 180.613L279.83 180.779Z" fill="#12C6A3"/>
<defs>
<radialGradient id="paint0_radial_294_1111" cx="0" cy="0" r="1" gradientUnits="userSpaceOnUse" gradientTransform="translate(-58.2807 128.746) scale(351.585 351.585)">
<stop offset="0.6038" stop-color="#00DF82"/>
<stop offset="0.9256" stop-color="#12C6A3"/>
</radialGradient>
<linearGradient id="paint1_linear_294_1111" x1="1.57779" y1="225.163" x2="282.986" y2="225.163" gradientUnits="userSpaceOnUse">
<stop offset="0.3605" stop-color="#12C6A3"/>
<stop offset="0.4099" stop-color="#10BE9C" stop-opacity="0.887176"/>
<stop offset="0.5013" stop-color="#0EAB8B" stop-opacity="0.621102"/>
<stop offset="0.6247" stop-color="#098C70" stop-opacity="0.290629"/>
<stop offset="0.7734" stop-color="#03624C" stop-opacity="0.2"/>
</linearGradient>
<linearGradient id="paint2_linear_294_1111" x1="223.099" y1="-16.6514" x2="197.275" y2="116.28" gradientUnits="userSpaceOnUse">
<stop offset="0.4832" stop-color="#12C6A3"/>
<stop offset="0.5675" stop-color="#0FB393"/>
<stop offset="0.736" stop-color="#08856A"/>
<stop offset="0.8505" stop-color="#03624C"/>
</linearGradient>
<linearGradient id="paint3_linear_294_1111" x1="239.777" y1="84.928" x2="223.901" y2="134.46" gradientUnits="userSpaceOnUse">
<stop offset="0.4832" stop-color="#12C6A3"/>
<stop offset="0.5675" stop-color="#0FB393"/>
<stop offset="0.736" stop-color="#08856A"/>
<stop offset="0.8505" stop-color="#03624C"/>
</linearGradient>
<linearGradient id="paint4_linear_294_1111" x1="254.259" y1="134.229" x2="233.515" y2="178.681" gradientUnits="userSpaceOnUse">
<stop offset="0.4832" stop-color="#12C6A3"/>
<stop offset="0.5675" stop-color="#0FB393"/>
<stop offset="0.736" stop-color="#08856A"/>
<stop offset="0.8505" stop-color="#03624C"/>
</linearGradient>
<radialGradient id="paint5_radial_294_1111" cx="0" cy="0" r="1" gradientUnits="userSpaceOnUse" gradientTransform="translate(104.348 155.369) scale(60.0327 60.0327)">
<stop offset="0.3403" stop-color="#042222"/>
<stop offset="0.5625" stop-color="#03342D"/>
<stop offset="1" stop-color="#03624C"/>
</radialGradient>
</defs>
</svg>
