<svg width="1269" height="460" viewBox="0 0 1269 460" fill="none" xmlns="http://www.w3.org/2000/svg">
<path d="M193.572 317.977C155.865 318.26 123.073 288.373 120.105 250.659C116.07 209.756 148.366 172.078 189.875 170.409C219.925 168.532 249.41 186.728 261.263 214.358C282.692 262.786 246.883 318.111 193.743 317.977H193.572Z" fill="white"/>
<path d="M346.033 303.495C345.025 300.417 343.409 297.539 341.661 294.775C336.753 287.14 331.134 278.808 325.653 271.916C322.995 268.489 319.86 264.275 320.003 259.861C320.099 253.366 326.469 252.859 331.653 253.978C336.056 254.433 348.925 258.398 344.921 249.617C341.803 242.884 336.301 237.944 330.302 233.392C325.102 229.372 318.606 225.924 314.595 220.728C310.354 215.206 311.275 208.665 317.725 206.27C321.49 204.619 326.828 203.697 329.346 200.357C333.902 193.536 323.643 189.131 318.203 188.316C312.811 187.273 307.296 186.756 302.202 183.882C297.086 181.188 292.29 175.318 294.751 169.352C296.927 164.013 302.899 161.098 306.8 156.585C312.845 150.348 311.949 141.437 307.885 134.337C301.441 122.894 292.337 112.913 281.604 105.506C275.424 101.254 268.4 98.3591 261.031 96.7502C226.043 89.3191 188.177 98.6529 160.083 120.62C126.076 147.135 104.182 188.789 94.4216 230.24C88.7289 256.473 88.7057 285.931 103.254 309.368C129.189 349.231 178.131 355.622 219.198 336.34C244.032 323.704 265.677 330.054 290.637 338.294C300.403 341.12 311.398 343.915 321.338 341.513C337.441 337.438 351.683 321.166 346.079 303.637L346.033 303.495ZM193.572 317.977C155.865 318.26 123.073 288.373 120.105 250.658C116.07 209.756 148.366 172.078 189.875 170.409C219.925 168.532 249.41 186.728 261.263 214.358C282.692 262.786 246.883 318.111 193.743 317.977H193.572Z" fill="#00FF8B"/>
<path d="M346.033 303.495C345.025 300.417 343.409 297.539 341.661 294.775C336.753 287.14 331.134 278.808 325.653 271.916C322.995 268.489 319.86 264.275 320.003 259.861C320.099 253.366 326.469 252.859 331.653 253.978C336.056 254.433 348.925 258.398 344.921 249.617C341.803 242.884 336.301 237.944 330.302 233.392C325.102 229.372 318.606 225.924 314.595 220.728C310.354 215.206 311.275 208.665 317.725 206.27C321.49 204.619 326.828 203.697 329.346 200.357C333.902 193.536 323.643 189.131 318.203 188.316C312.811 187.273 307.296 186.756 302.202 183.882C297.086 181.188 292.29 175.318 294.751 169.352C296.927 164.013 302.899 161.098 306.8 156.585C312.845 150.348 311.949 141.437 307.885 134.337C301.441 122.894 292.337 112.913 281.604 105.506C275.424 101.254 268.4 98.3591 261.031 96.7502C226.043 89.3191 188.177 98.6529 160.083 120.62C126.076 147.135 104.182 188.789 94.4216 230.24C88.7289 256.473 88.7057 285.931 103.254 309.368C129.189 349.231 178.131 355.622 219.198 336.34C244.032 323.704 265.677 330.054 290.637 338.294C300.403 341.12 311.398 343.915 321.338 341.513C337.441 337.438 351.683 321.166 346.079 303.637L346.033 303.495ZM193.572 317.977C155.865 318.26 123.073 288.373 120.105 250.658C116.07 209.756 148.366 172.078 189.875 170.409C219.925 168.532 249.41 186.728 261.263 214.358C282.692 262.786 246.883 318.111 193.743 317.977H193.572Z" fill="url(#paint0_radial_318_61)"/>
<mask id="mask0_318_61" style="mask-type:luminance" maskUnits="userSpaceOnUse" x="90" y="94" width="258" height="253">
<mask id="mask1_318_61" style="mask-type:luminance" maskUnits="userSpaceOnUse" x="90" y="94" width="258" height="253">
<path d="M346.033 303.495C345.025 300.417 343.409 297.539 341.661 294.775C336.753 287.14 331.134 278.808 325.653 271.916C322.995 268.489 319.86 264.275 320.003 259.861C320.099 253.366 326.469 252.859 331.653 253.978C336.056 254.433 348.925 258.398 344.921 249.617C341.803 242.884 336.301 237.944 330.302 233.392C325.102 229.372 318.606 225.924 314.595 220.728C310.354 215.206 311.275 208.665 317.725 206.27C321.49 204.619 326.828 203.697 329.346 200.357C333.902 193.536 323.643 189.131 318.203 188.316C312.811 187.273 307.296 186.756 302.202 183.882C297.086 181.188 292.29 175.318 294.751 169.352C296.927 164.013 302.899 161.098 306.8 156.585C312.845 150.348 311.949 141.437 307.885 134.337C301.441 122.894 292.337 112.913 281.604 105.506C275.424 101.254 268.4 98.3591 261.031 96.7502C226.043 89.3191 188.177 98.6529 160.083 120.62C126.076 147.135 104.182 188.789 94.4216 230.24C88.7289 256.473 88.7057 285.931 103.254 309.368C129.189 349.231 178.131 355.622 219.198 336.34C244.032 323.704 265.677 330.054 290.637 338.294C300.403 341.12 311.398 343.915 321.338 341.513C337.441 337.438 351.683 321.166 346.079 303.637L346.033 303.495ZM193.572 317.977C155.865 318.26 123.073 288.373 120.105 250.658C116.07 209.756 148.366 172.078 189.875 170.409C219.925 168.532 249.41 186.728 261.263 214.358C282.692 262.786 246.883 318.111 193.743 317.977H193.572Z" fill="white"/>
</mask>
<g mask="url(#mask1_318_61)">
<path d="M346.033 303.495C345.025 300.417 343.409 297.539 341.661 294.775C336.753 287.14 331.134 278.808 325.653 271.916C322.995 268.489 319.86 264.275 320.003 259.861C320.099 253.366 326.469 252.859 331.653 253.978C336.056 254.433 348.925 258.398 344.921 249.617C341.803 242.884 336.301 237.944 330.302 233.392C325.102 229.372 318.606 225.924 314.595 220.728C310.354 215.206 311.275 208.665 317.725 206.27C321.49 204.619 326.828 203.697 329.346 200.357C333.902 193.536 323.643 189.131 318.203 188.316C312.811 187.273 307.296 186.756 302.202 183.882C297.086 181.188 292.29 175.318 294.751 169.352C296.927 164.013 302.899 161.098 306.8 156.585C312.845 150.348 311.949 141.437 307.885 134.337C301.441 122.894 292.337 112.913 281.604 105.506C275.424 101.254 268.4 98.3591 261.031 96.7502C226.043 89.3191 188.177 98.6529 160.083 120.62C126.076 147.135 104.182 188.789 94.4216 230.24C88.7289 256.473 88.7057 285.931 103.254 309.368C129.189 349.231 178.131 355.622 219.198 336.34C244.032 323.704 265.677 330.054 290.637 338.294C300.403 341.12 311.398 343.915 321.338 341.513C337.441 337.438 351.683 321.166 346.079 303.637L346.033 303.495ZM193.572 317.977C155.865 318.26 123.073 288.373 120.105 250.658C116.07 209.756 148.366 172.078 189.875 170.409C219.925 168.532 249.41 186.728 261.263 214.358C282.692 262.786 246.883 318.111 193.743 317.977H193.572Z" fill="white"/>
</g>
</mask>
<g mask="url(#mask0_318_61)">
<path d="M90.8756 285.705C111.62 334.601 170.888 351.112 202.639 331.638C234.391 312.164 236.402 310.012 261.838 310.823C293.306 311.635 310.205 339.681 350.635 311.741C391.883 283.234 347.322 348.257 347.322 348.257L202.29 358.874L96.2028 339.047C96.2028 339.047 79.0999 257.948 90.8756 285.705Z" fill="#1BAB93"/>
<path d="M90.8756 285.705C111.62 334.601 170.888 351.112 202.639 331.638C234.391 312.164 236.402 310.012 261.838 310.823C293.306 311.635 310.205 339.681 350.635 311.741C391.883 283.234 347.322 348.257 347.322 348.257L202.29 358.874L96.2028 339.047C96.2028 339.047 79.0999 257.948 90.8756 285.705Z" fill="url(#paint1_linear_318_61)"/>
<path d="M286.709 104.371C311.969 137.585 300.115 150.022 293.13 158.7C286.145 167.379 292.633 173.612 295.101 176.855L313.804 170.977L334.124 125.062L290.378 96.4682C290.378 96.4682 272.677 85.9195 286.709 104.371Z" fill="url(#paint2_linear_318_61)"/>
<path d="M329.961 191.933C329.961 191.933 331.02 199.024 318.425 201.459C305.831 203.893 312.498 216.699 312.498 216.699L329.983 214.371C329.983 214.371 332.396 200.189 332.607 199.342C332.819 198.495 329.961 191.933 329.961 191.933Z" fill="url(#paint3_linear_318_61)"/>
<path d="M349.33 250.461C349.33 250.461 343.932 257.023 329.644 247.074C315.356 237.125 320.119 262.167 320.119 262.167L343.72 265.595L349.33 250.461Z" fill="url(#paint4_linear_318_61)"/>
</g>
<path d="M255.194 249.689C255.638 289.511 215.445 319.051 177.514 306.945C159.209 301.381 144.356 286.901 138.326 268.724C136.067 261.779 134.735 254.015 135.431 246.653C136.205 239.652 141.485 243.429 145.866 245.625C151.463 248.488 158.081 249.555 164.326 248.633C181.866 246.447 193.948 228.19 189.615 211.248C188.621 205.956 185.039 200.878 182.27 196.759C179.445 192.259 182.774 190.818 187.042 190.172C222.345 184.712 255.794 214.041 255.194 249.52V249.689Z" fill="url(#paint5_radial_318_61)"/>
<path d="M398.622 199.755C392.983 210.663 380.334 204.716 370.775 202.404C365.697 200.737 352.104 198.43 350.153 193.461C349.863 190.401 354.176 188.365 356.374 186.487C359.066 184.527 361.626 182.276 363.351 179.414C369.014 169.809 364.59 154.921 353.776 150.537C350.619 149.118 346.425 148.056 343.607 146.364C339.121 143.535 343.573 141.333 347.363 139.996C357.3 137.202 369.156 135.995 378.514 141.097C394.076 149.86 404.206 182.988 398.682 199.628L398.622 199.755Z" fill="#12C6A3"/>
<path d="M374.643 260.17C370.546 263.482 365.032 262.257 360.94 259.527C358.804 258.04 356.352 256.24 356.324 253.569C356.368 253.07 356.563 252.614 356.862 252.203C358.27 250.32 362.561 248.67 363.926 245.718C367.85 238.897 365.876 226.213 356.848 216.116C354.464 213.452 351.504 210.891 349.512 208.828C347.273 206.544 346.285 204.893 347.223 203.996C347.947 203.256 349.919 203.002 352.619 203.114C362.552 203.973 375.029 206.152 380.98 214.996C386.292 223.301 385.409 236.404 382.475 246.135C380.841 251.162 378.966 256.755 374.759 260.082L374.643 260.17Z" fill="#12C6A3"/>
<path d="M370.706 275.012C372.09 284.104 364.157 301.852 355.687 306.134C351.701 307.031 356.05 298.224 356.714 295.718C358.571 289.909 359.372 283.223 357.344 275.058C356.905 271.902 352.015 261.295 356.61 260.405C358.882 260.038 363.506 262.701 366.396 265.919C368.687 268.391 370.251 271.497 370.684 274.846L370.706 275.012Z" fill="#12C6A3"/>
<path d="M0 346.82H1268.71" stroke="black" stroke-width="1.5606" stroke-miterlimit="10"/>
<path d="M0 317.979H1268.71" stroke="black" stroke-width="1.5606" stroke-miterlimit="10"/>
<path d="M0 170.276H1268.71" stroke="black" stroke-width="1.5606" stroke-miterlimit="10"/>
<path d="M90.8756 0V459.743" stroke="black" stroke-width="1.5606" stroke-miterlimit="10"/>
<path d="M119.764 0V459.743" stroke="black" stroke-width="1.5606" stroke-miterlimit="10"/>
<path d="M267.571 0V459.743" stroke="black" stroke-width="1.5606" stroke-miterlimit="10"/>
<path d="M347.322 0V459.743" stroke="black" stroke-width="1.5606" stroke-miterlimit="10"/>
<path d="M400.206 0V459.743" stroke="black" stroke-width="1.5606" stroke-miterlimit="10"/>
<path d="M424.623 0V459.743" stroke="black" stroke-width="1.5606" stroke-miterlimit="10"/>
<path d="M545.841 0V459.743" stroke="black" stroke-width="1.5606" stroke-miterlimit="10"/>
<path d="M561.146 0V459.743" stroke="black" stroke-width="1.5606" stroke-miterlimit="10"/>
<path d="M686.432 0V459.743" stroke="black" stroke-width="1.5606" stroke-miterlimit="10"/>
<path d="M699.025 0V459.743" stroke="black" stroke-width="1.5606" stroke-miterlimit="10"/>
<path d="M841.737 0V459.743" stroke="black" stroke-width="1.5606" stroke-miterlimit="10"/>
<path d="M854.331 0V459.743" stroke="black" stroke-width="1.5606" stroke-miterlimit="10"/>
<path d="M970.127 0V459.743" stroke="black" stroke-width="1.5606" stroke-miterlimit="10"/>
<path d="M984.656 0V459.743" stroke="black" stroke-width="1.5606" stroke-miterlimit="10"/>
<path d="M1111.68 0V459.743" stroke="black" stroke-width="1.5606" stroke-miterlimit="10"/>
<path d="M1168.72 0V459.743" stroke="black" stroke-width="1.5606" stroke-miterlimit="10"/>
<path d="M0 94.2329H1268.71" stroke="black" stroke-width="1.5606" stroke-miterlimit="10"/>
<path d="M424.72 274.221L424.623 272.331H462.383L462.576 273.227C464.222 280.983 473.71 286.154 485.328 286.154C497.624 286.154 505.177 280.983 505.177 273.823V273.724C505.177 266.962 499.562 264.177 484.071 261.294L470.032 258.708C442.245 253.637 427.043 239.218 427.043 216.943V216.844C427.043 188.006 451.248 169.808 484.361 169.808C521.733 169.808 541.581 186.912 542.743 213.76L542.84 215.948H505.08L504.984 214.954C504.209 207.098 496.075 202.126 484.845 202.126C473.517 202.126 467.708 207.198 467.708 213.76V213.86C467.708 220.324 473.71 223.406 487.652 225.992L501.691 228.577C531.609 234.146 545.841 246.676 545.841 269.945V270.045C545.841 299.678 523.379 318.473 484.845 318.473C448.634 318.473 426.172 302.562 424.72 274.221Z" fill="black"/>
<path d="M561.146 172.393H595.324L644.701 245.781H645.38V172.393H686.432V315.887H652.641L602.875 241.306H602.197V315.887H561.146L561.146 172.393Z" fill="black"/>
<path d="M744.627 172.393H796.135L841.737 315.887H798.555L791.293 287.348H749.467L742.206 315.887H699.025L744.627 172.393ZM757.02 257.615H783.742L770.768 206.601H769.993L757.02 257.615Z" fill="black"/>
<path d="M854.331 172.393H916.78C949.504 172.393 970.127 192.878 970.127 224.699V224.898C970.127 256.72 949.504 276.708 916.78 276.708H895.383V315.887H854.331V172.393ZM895.383 204.115V245.582H907.001C920.556 245.582 928.689 238.621 928.689 224.898V224.699C928.689 210.977 920.556 204.115 907.001 204.115L895.383 204.115Z" fill="black"/>
<path d="M984.656 172.393H1044.39C1086.7 172.393 1111.68 197.055 1111.68 242.897V243.096C1111.68 289.038 1086.7 315.887 1044.39 315.887H984.656V172.393ZM1038.59 282.376C1059.11 282.376 1069.86 269.548 1069.86 243.096V242.897C1069.86 218.833 1058.14 205.905 1038.59 205.905H1025.71V282.376H1038.59Z" fill="black"/>
<path d="M1127.67 172.393H1168.72V315.887H1127.67V172.393Z" fill="black"/>
<defs>
<radialGradient id="paint0_radial_318_61" cx="0" cy="0" r="1" gradientUnits="userSpaceOnUse" gradientTransform="translate(32.5949 222.979) scale(351.585 351.585)">
<stop offset="0.6038" stop-color="#00DF82"/>
<stop offset="0.9256" stop-color="#12C6A3"/>
</radialGradient>
<linearGradient id="paint1_linear_318_61" x1="92.4534" y1="319.396" x2="373.861" y2="319.396" gradientUnits="userSpaceOnUse">
<stop offset="0.3605" stop-color="#12C6A3"/>
<stop offset="0.4099" stop-color="#10BE9C" stop-opacity="0.887176"/>
<stop offset="0.5013" stop-color="#0EAB8B" stop-opacity="0.621102"/>
<stop offset="0.6247" stop-color="#098C70" stop-opacity="0.290629"/>
<stop offset="0.7734" stop-color="#03624C" stop-opacity="0.2"/>
</linearGradient>
<linearGradient id="paint2_linear_318_61" x1="313.975" y1="77.5815" x2="288.151" y2="210.513" gradientUnits="userSpaceOnUse">
<stop offset="0.4832" stop-color="#12C6A3"/>
<stop offset="0.5675" stop-color="#0FB393"/>
<stop offset="0.736" stop-color="#08856A"/>
<stop offset="0.8505" stop-color="#03624C"/>
</linearGradient>
<linearGradient id="paint3_linear_318_61" x1="330.653" y1="179.161" x2="314.777" y2="228.692" gradientUnits="userSpaceOnUse">
<stop offset="0.4832" stop-color="#12C6A3"/>
<stop offset="0.5675" stop-color="#0FB393"/>
<stop offset="0.736" stop-color="#08856A"/>
<stop offset="0.8505" stop-color="#03624C"/>
</linearGradient>
<linearGradient id="paint4_linear_318_61" x1="345.135" y1="228.462" x2="324.391" y2="272.914" gradientUnits="userSpaceOnUse">
<stop offset="0.4832" stop-color="#12C6A3"/>
<stop offset="0.5675" stop-color="#0FB393"/>
<stop offset="0.736" stop-color="#08856A"/>
<stop offset="0.8505" stop-color="#03624C"/>
</linearGradient>
<radialGradient id="paint5_radial_318_61" cx="0" cy="0" r="1" gradientUnits="userSpaceOnUse" gradientTransform="translate(195.224 249.602) scale(60.0327 60.0327)">
<stop offset="0.3403" stop-color="#042222"/>
<stop offset="0.5625" stop-color="#03342D"/>
<stop offset="1" stop-color="#03624C"/>
</radialGradient>
</defs>
</svg>
